<?xml version="1.0" encoding="UTF-8"?>
<svg xmlns="http://www.w3.org/2000/svg" xmlns:xlink="http://www.w3.org/1999/xlink"
     width="900.0" height="900.0" viewBox="-450 -450 900.0 900.0">
<defs>
<linearGradient x1="199.87779622782298" y1="-6.990463154103205" x2="-37.23283500710763" y2="196.50373023770692" gradientUnits="userSpaceOnUse" id="WW0WPTLZ0">
<stop offset="0" stop-color="#636EFA" />
<stop offset="1" stop-color="#AB63FA" />
</linearGradient>
<linearGradient x1="132.14284503740527" y1="-150.12750749086692" x2="-196.02137028941732" y2="39.69411026662707" gradientUnits="userSpaceOnUse" id="WW0WPTLZ1">
<stop offset="0" stop-color="#EF553B" />
<stop offset="1" stop-color="#AB63FA" />
</linearGradient>
<linearGradient x1="137.30940731441765" y1="-145.41707830569058" x2="-178.80794713644093" y2="89.59753367616628" gradientUnits="userSpaceOnUse" id="WW0WPTLZ2">
<stop offset="0" stop-color="#EF553B" />
<stop offset="1" stop-color="#19D3F3" />
</linearGradient>
<linearGradient x1="142.30817231613796" y1="-140.52894396543508" x2="-163.42954630561104" y2="115.28565996836787" gradientUnits="userSpaceOnUse" id="WW0WPTLZ3">
<stop offset="0" stop-color="#EF553B" />
<stop offset="1" stop-color="#FF6692" />
</linearGradient>
<linearGradient x1="142.30817231613796" y1="-140.52894396543508" x2="-110.7483242511712" y2="166.53770947013004" gradientUnits="userSpaceOnUse" id="WW0WPTLZ4">
<stop offset="0" stop-color="#EF553B" />
<stop offset="1" stop-color="#FF97FF" />
</linearGradient>
<linearGradient x1="156.2376666791153" y1="-124.85908661633584" x2="-66.14927717626117" y2="188.74393534378308" gradientUnits="userSpaceOnUse" id="WW0WPTLZ5">
<stop offset="0" stop-color="#EF553B" />
<stop offset="1" stop-color="#00CC96" />
</linearGradient>
<linearGradient x1="164.5788220276979" y1="-113.63895168460215" x2="-44.078345472026605" y2="195.0822889460975" gradientUnits="userSpaceOnUse" id="WW0WPTLZ6">
<stop offset="0" stop-color="#EF553B" />
<stop offset="1" stop-color="#AB63FA" />
</linearGradient>
<linearGradient x1="168.45020578644733" y1="-107.81710518514001" x2="-5.483087454736193" y2="199.92482525180236" gradientUnits="userSpaceOnUse" id="WW0WPTLZ7">
<stop offset="0" stop-color="#EF553B" />
<stop offset="1" stop-color="#19D3F3" />
</linearGradient>
<linearGradient x1="175.57093636935173" y1="-95.78541800498158" x2="40.191986396411814" y2="195.91989237826425" gradientUnits="userSpaceOnUse" id="WW0WPTLZ8">
<stop offset="0" stop-color="#EF553B" />
<stop offset="1" stop-color="#B6E880" />
</linearGradient>
<linearGradient x1="178.81158139212775" y1="-89.59028049987602" x2="134.37379866778386" y2="148.1340009302047" gradientUnits="userSpaceOnUse" id="WW0WPTLZ9">
<stop offset="0" stop-color="#EF553B" />
<stop offset="1" stop-color="#FF97FF" />
</linearGradient>
<linearGradient x1="197.7590623887056" y1="-29.855539572080392" x2="196.21738975176652" y2="38.71351132361089" gradientUnits="userSpaceOnUse" id="WW0WPTLZ10">
<stop offset="0" stop-color="#EF553B" />
<stop offset="1" stop-color="#FECB52" />
</linearGradient>
<linearGradient x1="90.05151700605141" y1="-178.57974208993818" x2="-199.2793117485487" y2="16.96336962471601" gradientUnits="userSpaceOnUse" id="WW0WPTLZ11">
<stop offset="0" stop-color="#00CC96" />
<stop offset="1" stop-color="#00CC96" />
</linearGradient>
<linearGradient x1="96.23826936645422" y1="-175.32311744133972" x2="-185.39013938122991" y2="75.03663252177667" gradientUnits="userSpaceOnUse" id="WW0WPTLZ12">
<stop offset="0" stop-color="#00CC96" />
<stop offset="1" stop-color="#FFA15A" />
</linearGradient>
<linearGradient x1="102.30741493141338" y1="-171.8522413297296" x2="-167.35918856141913" y2="109.50297714703171" gradientUnits="userSpaceOnUse" id="WW0WPTLZ13">
<stop offset="0" stop-color="#00CC96" />
<stop offset="1" stop-color="#FF6692" />
</linearGradient>
<linearGradient x1="114.06337155918122" y1="-164.28495752366425" x2="-149.1376287228351" y2="133.25902483107774" gradientUnits="userSpaceOnUse" id="WW0WPTLZ14">
<stop offset="0" stop-color="#00CC96" />
<stop offset="1" stop-color="#B6E880" />
</linearGradient>
<linearGradient x1="114.06337155918122" y1="-164.28495752366425" x2="-14.463026373756033" y2="199.4763666906735" gradientUnits="userSpaceOnUse" id="WW0WPTLZ15">
<stop offset="0" stop-color="#00CC96" />
<stop offset="1" stop-color="#FFA15A" />
</linearGradient>
<linearGradient x1="119.73581639953537" y1="-160.19779733547136" x2="129.1140673655266" y2="152.74016370401816" gradientUnits="userSpaceOnUse" id="WW0WPTLZ16">
<stop offset="0" stop-color="#00CC96" />
<stop offset="1" stop-color="#FF97FF" />
</linearGradient>
<linearGradient x1="75.50738530339056" y1="-185.1989059488347" x2="-199.75045738214118" y2="9.987731255164771" gradientUnits="userSpaceOnUse" id="WW0WPTLZ17">
<stop offset="0" stop-color="#AB63FA" />
<stop offset="1" stop-color="#00CC96" />
</linearGradient>
<linearGradient x1="81.93437950791184" y1="-182.44658795015454" x2="-187.89956658370315" y2="68.51096903165585" gradientUnits="userSpaceOnUse" id="WW0WPTLZ18">
<stop offset="0" stop-color="#AB63FA" />
<stop offset="1" stop-color="#FFA15A" />
</linearGradient>
<linearGradient x1="60.4812425847861" y1="-190.63582899182475" x2="194.74437035342623" y2="45.54810880429131" gradientUnits="userSpaceOnUse" id="WW0WPTLZ19">
<stop offset="0" stop-color="#FFA15A" />
<stop offset="1" stop-color="#FECB52" />
</linearGradient>
<linearGradient x1="24.422666488513904" y1="-198.50323262252135" x2="33.31957439053666" y2="197.2049846287702" gradientUnits="userSpaceOnUse" id="WW0WPTLZ20">
<stop offset="0" stop-color="#19D3F3" />
<stop offset="1" stop-color="#B6E880" />
</linearGradient>
<linearGradient x1="31.345891446746872" y1="-197.52831465237776" x2="106.56443891981691" y2="169.24544412687928" gradientUnits="userSpaceOnUse" id="WW0WPTLZ21">
<stop offset="0" stop-color="#19D3F3" />
<stop offset="1" stop-color="#FF97FF" />
</linearGradient>
<linearGradient x1="15.476400122256798" y1="-199.40030350843455" x2="199.797898954824" y2="8.98885828333809" gradientUnits="userSpaceOnUse" id="WW0WPTLZ22">
<stop offset="0" stop-color="#FF6692" />
<stop offset="1" stop-color="#636EFA" />
</linearGradient>
<linearGradient x1="-42.125351197209056" y1="-195.51331102130055" x2="-14.463026373756033" y2="199.4763666906735" gradientUnits="userSpaceOnUse" id="WW0WPTLZ23">
<stop offset="0" stop-color="#B6E880" />
<stop offset="1" stop-color="#FFA15A" />
</linearGradient>
<linearGradient x1="-42.125351197209056" y1="-195.51331102130055" x2="62.38454506529497" y2="190.02149493411576" gradientUnits="userSpaceOnUse" id="WW0WPTLZ24">
<stop offset="0" stop-color="#B6E880" />
<stop offset="1" stop-color="#FF97FF" />
</linearGradient>
<linearGradient x1="6.498855789597002" y1="-199.89438429687317" x2="193.03336598841173" y2="52.327044777857424" gradientUnits="userSpaceOnUse" id="WW0WPTLZ25">
<stop offset="0" stop-color="#B6E880" />
<stop offset="1" stop-color="#FECB52" />
</linearGradient>
<linearGradient x1="-70.83912674809947" y1="-187.03426991213857" x2="-110.7483242511712" y2="166.53770947013004" gradientUnits="userSpaceOnUse" id="WW0WPTLZ26">
<stop offset="0" stop-color="#FF97FF" />
<stop offset="1" stop-color="#FF97FF" />
</linearGradient>
<linearGradient x1="-64.25856184369077" y1="-189.39597997259753" x2="24.422666488512622" y2="198.5032326225215" gradientUnits="userSpaceOnUse" id="WW0WPTLZ27">
<stop offset="0" stop-color="#FF97FF" />
<stop offset="1" stop-color="#FF6692" />
</linearGradient>
<linearGradient x1="-57.59947055276237" y1="-191.52624100117836" x2="62.38454506529497" y2="190.02149493411576" gradientUnits="userSpaceOnUse" id="WW0WPTLZ28">
<stop offset="0" stop-color="#FF97FF" />
<stop offset="1" stop-color="#FF97FF" />
</linearGradient>
<linearGradient x1="-104.00000528561613" y1="-170.83324881471938" x2="-181.83033339757318" y2="83.29303606261074" gradientUnits="userSpaceOnUse" id="WW0WPTLZ29">
<stop offset="0" stop-color="#FECB52" />
<stop offset="1" stop-color="#19D3F3" />
</linearGradient>
<linearGradient x1="-104.00000528561613" y1="-170.83324881471938" x2="183.85562337719753" y2="78.72172351125263" gradientUnits="userSpaceOnUse" id="WW0WPTLZ30">
<stop offset="0" stop-color="#FECB52" />
<stop offset="1" stop-color="#FECB52" />
</linearGradient>
<linearGradient x1="-111.5728920551712" y1="-165.98641437914466" x2="-116.50153354534069" y2="162.5650413883128" gradientUnits="userSpaceOnUse" id="WW0WPTLZ31">
<stop offset="0" stop-color="#636EFA" />
<stop offset="1" stop-color="#FF97FF" />
</linearGradient>
<linearGradient x1="-135.10082241875594" y1="-147.47124391479096" x2="55.70473563750971" y2="192.08587253505956" gradientUnits="userSpaceOnUse" id="WW0WPTLZ32">
<stop offset="0" stop-color="#EF553B" />
<stop offset="1" stop-color="#FF97FF" />
</linearGradient>
<linearGradient x1="-146.44279936985185" y1="-136.21492764275624" x2="-190.17937342790685" y2="61.901582553023296" gradientUnits="userSpaceOnUse" id="WW0WPTLZ33">
<stop offset="0" stop-color="#00CC96" />
<stop offset="1" stop-color="#FFA15A" />
</linearGradient>
<linearGradient x1="-141.59229289376847" y1="-141.2502127187258" x2="-138.02303140883646" y2="144.73991433158767" gradientUnits="userSpaceOnUse" id="WW0WPTLZ34">
<stop offset="0" stop-color="#00CC96" />
<stop offset="1" stop-color="#FF97FF" />
</linearGradient>
<linearGradient x1="-152.4169015590748" y1="-129.49551389577672" x2="-197.28899861130276" y2="32.81845558446315" gradientUnits="userSpaceOnUse" id="WW0WPTLZ35">
<stop offset="0" stop-color="#AB63FA" />
<stop offset="1" stop-color="#AB63FA" />
</linearGradient>
<linearGradient x1="-166.25580915065765" y1="-111.17106603635722" x2="-198.31553233479494" y2="25.902695511604783" gradientUnits="userSpaceOnUse" id="WW0WPTLZ36">
<stop offset="0" stop-color="#FFA15A" />
<stop offset="1" stop-color="#AB63FA" />
</linearGradient>
<linearGradient x1="-162.26853751088726" y1="-116.91416395834074" x2="-142.9976919237242" y2="139.8272509366027" gradientUnits="userSpaceOnUse" id="WW0WPTLZ37">
<stop offset="0" stop-color="#FFA15A" />
<stop offset="1" stop-color="#FF97FF" />
</linearGradient>
<linearGradient x1="-158.08296759722205" y1="-122.51438836175792" x2="-68.03337763623698" y2="188.07301647872077" gradientUnits="userSpaceOnUse" id="WW0WPTLZ38">
<stop offset="0" stop-color="#FFA15A" />
<stop offset="1" stop-color="#EF553B" />
</linearGradient>
<linearGradient x1="-171.08431157571957" y1="-103.58647755697703" x2="33.31957439053666" y2="197.2049846287702" gradientUnits="userSpaceOnUse" id="WW0WPTLZ39">
<stop offset="0" stop-color="#19D3F3" />
<stop offset="1" stop-color="#B6E880" />
</linearGradient>
<linearGradient x1="-181.8303333975726" y1="-83.29303606261207" x2="-158.08296759722296" y2="122.51438836175674" gradientUnits="userSpaceOnUse" id="WW0WPTLZ40">
<stop offset="0" stop-color="#FF6692" />
<stop offset="1" stop-color="#B6E880" />
</linearGradient>
<linearGradient x1="-178.80794713644025" y1="-89.5975336761676" x2="-44.078345472026605" y2="195.0822889460975" gradientUnits="userSpaceOnUse" id="WW0WPTLZ41">
<stop offset="0" stop-color="#FF6692" />
<stop offset="1" stop-color="#AB63FA" />
</linearGradient>
<linearGradient x1="-178.80794713644025" y1="-89.5975336761676" x2="199.36163725706172" y2="15.96676517594389" gradientUnits="userSpaceOnUse" id="WW0WPTLZ42">
<stop offset="0" stop-color="#FF6692" />
<stop offset="1" stop-color="#636EFA" />
</linearGradient>
<linearGradient x1="-187.89956658370266" y1="-68.51096903165723" x2="-76.41743801283593" y2="184.82525576217762" gradientUnits="userSpaceOnUse" id="WW0WPTLZ43">
<stop offset="0" stop-color="#B6E880" />
<stop offset="1" stop-color="#636EFA" />
</linearGradient>
<linearGradient x1="-185.39013938122935" y1="-75.03663252177803" x2="183.85562337719753" y2="78.72172351125263" gradientUnits="userSpaceOnUse" id="WW0WPTLZ44">
<stop offset="0" stop-color="#B6E880" />
<stop offset="1" stop-color="#FECB52" />
</linearGradient>
<linearGradient x1="-190.78887004712752" y1="-59.996725461814016" x2="-192.226773903879" y2="55.216550005473685" gradientUnits="userSpaceOnUse" id="WW0WPTLZ45">
<stop offset="0" stop-color="#FF97FF" />
<stop offset="1" stop-color="#FFA15A" />
</linearGradient>
<linearGradient x1="-193.2925872101078" y1="-51.36122788274115" x2="-84.64705794851425" y2="181.20396127199007" gradientUnits="userSpaceOnUse" id="WW0WPTLZ46">
<stop offset="0" stop-color="#FECB52" />
<stop offset="1" stop-color="#FECB52" />
</linearGradient>
<linearGradient x1="-198.79388992440917" y1="-21.93146891391186" x2="-171.08431157572033" y2="103.58647755697577" gradientUnits="userSpaceOnUse" id="WW0WPTLZ47">
<stop offset="0" stop-color="#636EFA" />
<stop offset="1" stop-color="#FF6692" />
</linearGradient>
<linearGradient x1="-197.90586748144636" y1="-28.866375186645687" x2="17.469596110564563" y2="199.23557215450697" gradientUnits="userSpaceOnUse" id="WW0WPTLZ48">
<stop offset="0" stop-color="#636EFA" />
<stop offset="1" stop-color="#FF6692" />
</linearGradient>
<linearGradient x1="-195.40565803408884" y1="-42.62192872530206" x2="180.99177758546966" y2="85.09980285789082" gradientUnits="userSpaceOnUse" id="WW0WPTLZ49">
<stop offset="0" stop-color="#636EFA" />
<stop offset="1" stop-color="#FECB52" />
</linearGradient>
<linearGradient x1="-199.9102499307113" y1="-5.990990956473004" x2="-194.03926601100645" y2="48.464040750951376" gradientUnits="userSpaceOnUse" id="WW0WPTLZ50">
<stop offset="0" stop-color="#EF553B" />
<stop offset="1" stop-color="#FFA15A" />
</linearGradient>
<linearGradient x1="-199.57870198983042" y1="-12.974656529344198" x2="-174.6003631076729" y2="97.54339138387988" gradientUnits="userSpaceOnUse" id="WW0WPTLZ51">
<stop offset="0" stop-color="#EF553B" />
<stop offset="1" stop-color="#FF6692" />
</linearGradient>
</defs>
<rect x="-450" y="-450" width="900.0" height="900.0" fill="#ffffff" fill-opacity="1.0" />
<path d="M300.0,-0.0 A300,300,0,0,0,299.8166943417345,-10.485694731154807 L320.8038629456559,-11.219693362335644 A321.0,321.0,0,0,1,321.0,-0.0 Z" fill="#636EFA" fill-opacity="0.9" />
<path d="M299.6968484322361,-13.48328742500541 A300,300,0,0,0,190.22219882864263,-231.98171279822114 L203.53775274664764,-248.22043269409664 A321.0,321.0,0,0,1,320.67562782249263,-14.427117544755788 Z" fill="#EF553B" fill-opacity="0.9" />
<path d="M187.89290933340345,-233.8723040939851 A300,300,0,0,0,125.63207744244687,-272.4272033360381 L134.42632286341816,-291.49710756956074 A321.0,321.0,0,0,1,201.0454129867417,-250.24336538056406 Z" fill="#00CC96" fill-opacity="0.9" />
<path d="M122.90156926186775,-273.66988192523183 A300,300,0,0,0,103.48217733863447,-281.5873558476222 L110.72592975233889,-301.29847075695574 A321.0,321.0,0,0,1,131.5046791101985,-292.8267736599981 Z" fill="#AB63FA" fill-opacity="0.9" />
<path d="M100.66117664540008,-282.6080811236005 A300,300,0,0,0,90.72186387717915,-285.95374348773714 L97.0723943485817,-305.97050553187876 A321.0,321.0,0,0,1,107.70745901057809,-302.3906468022526 Z" fill="#FFA15A" fill-opacity="0.9" />
<path d="M87.85783804562752,-286.8466494382465 A300,300,0,0,0,36.63399973277085,-297.754848933782 L39.198379714064814,-318.5976883591468 A321.0,321.0,0,0,1,94.00788670882145,-306.9259148989238 Z" fill="#19D3F3" fill-opacity="0.9" />
<path d="M33.65466918427053,-298.1062952070911 A300,300,0,0,0,23.214600183385198,-299.1004552626518 L24.839622196222162,-320.03748713103744 A321.0,321.0,0,0,1,36.010496027169474,-318.97373587158745 Z" fill="#FF6692" fill-opacity="0.9" />
<path d="M20.22248476024885,-299.3176424972666 A300,300,0,0,0,-83.52204017115481,-288.1389748118918 L-89.36858298313565,-308.3087030487242 A321.0,321.0,0,0,1,21.63805869346627,-320.2698774720753 Z" fill="#B6E880" fill-opacity="0.9" />
<path d="M-86.39920582914355,-287.28936150176753 A300,300,0,0,0,-115.99968535116716,-276.66599537787476 L-124.11966332574887,-296.032615054326 A321.0,321.0,0,0,1,-92.4471502371836,-307.3996168068913 Z" fill="#FF97FF" fill-opacity="0.9" />
<path d="M-118.7604992582427,-275.49218467305553 A300,300,0,0,0,-164.86121546629448,-250.64073817912367 L-176.4015005489351,-268.18558985166237 A321.0,321.0,0,0,1,-127.0737342063197,-294.77663760016947 Z" fill="#FECB52" fill-opacity="0.9" />
<path d="M-167.3593380827568,-248.979621568717 A300,300,0,0,0,-200.42906935979505,-223.22228418230662 L-214.45910421498073,-238.8478440750681 A321.0,321.0,0,0,1,-179.0744917485498,-266.40819507852717 Z" fill="#636EFA" fill-opacity="0.9" />
<path d="M-202.65123362813392,-221.20686587218646 A300,300,0,0,0,-210.25910212877633,-213.98857439592612 L-224.9772392777907,-228.96777460364098 A321.0,321.0,0,0,1,-216.83681998210332,-236.69134648323953 Z" fill="#EF553B" fill-opacity="0.9" />
<path d="M-212.3884393406527,-211.8753190780887 A300,300,0,0,0,-226.6715208315355,-196.51977418040855 L-242.538527289743,-210.27615837303716 A321.0,321.0,0,0,1,-227.2556300944984,-226.70659141355492 Z" fill="#00CC96" fill-opacity="0.9" />
<path d="M-228.62535233861217,-194.2432708436651 A300,300,0,0,0,-235.27491007508243,-186.13359903349493 L-251.74415378033822,-199.1629509658396 A321.0,321.0,0,0,1,-244.62912700231504,-207.84029980272166 Z" fill="#AB63FA" fill-opacity="0.9" />
<path d="M-237.12445139583306,-183.77158254263688 A300,300,0,0,0,-255.0598648802738,-157.9381693171618 L-272.914055421893,-168.99384116936312 A321.0,321.0,0,0,1,-253.7231629935414,-196.63559332062147 Z" fill="#FFA15A" fill-opacity="0.9" />
<path d="M-256.62646736357937,-155.37971633546556 A300,300,0,0,0,-261.9005446615083,-146.31508707582176 L-280.23358278781393,-156.5571431711293 A321.0,321.0,0,0,1,-274.59032007902994,-166.25629647894814 Z" fill="#19D3F3" fill-opacity="0.9" />
<path d="M-263.3505762284323,-143.68880958568988 A300,300,0,0,0,-276.94577419849657,-115.33012682554093 L-296.33197839239136,-123.4032357033288 A321.0,321.0,0,0,1,-281.7851165644226,-153.74702625668817 Z" fill="#FF6692" fill-opacity="0.9" />
<path d="M-278.085209071844,-112.55494878266705 A300,300,0,0,0,-285.2690601418596,-92.85237382953704 L-305.2378943517898,-99.35203999760465 A321.0,321.0,0,0,1,-297.5511737068731,-120.43379519745376 Z" fill="#B6E880" fill-opacity="0.9" />
<path d="M-286.1833050706913,-89.99508819272103 A300,300,0,0,0,-289.1539784139301,-79.93733024936753 L-309.3947569029052,-85.53294336682326 A321.0,321.0,0,0,1,-306.2161364256397,-96.2947443662115 Z" fill="#FF97FF" fill-opacity="0.9" />
<path d="M-289.9388808151617,-77.04184182411171 A300,300,0,0,0,-292.45451347345823,-66.86073248927833 L-312.9263294166003,-71.54098376352782 A321.0,321.0,0,0,1,-310.23460247222306,-82.43477075179953 Z" fill="#FECB52" fill-opacity="0.9" />
<path d="M-293.1084870511333,-63.93289308795309 A300,300,0,0,0,-299.15846810254044,-22.4546423383071 L-320.0995608697183,-24.026467301988596 A321.0,321.0,0,0,1,-313.62608114471266,-68.4081956041098 Z" fill="#636EFA" fill-opacity="0.9" />
<path d="M-299.36805298474565,-19.461984794016296 A300,300,0,0,0,-299.9962500078125,1.499993750006678 L-320.99598750835935,1.6049933125071456 A321.0,321.0,0,0,1,-320.3238166936779,-20.824323729597438 Z" fill="#EF553B" fill-opacity="0.9" />
<path d="M-299.96625063280777,4.499831251897229 A300,300,0,0,0,-298.91896762282306,25.44505443707401 L-319.8432953564207,27.22620824766919 A321.0,321.0,0,0,1,-320.9638881771043,4.814819439530035 Z" fill="#00CC96" fill-opacity="0.9" />
<path d="M-298.6495754954415,28.43292205160356 A300,300,0,0,0,-294.03205543412594,59.5411653999406 L-314.61429931451477,63.709046977936445 A321.0,321.0,0,0,1,-319.55504578012244,30.42322659521581 Z" fill="#AB63FA" fill-opacity="0.9" />
<path d="M-293.4219522233457,62.478459915722986 A300,300,0,0,0,-278.0852090718449,112.55494878266501 L-297.551173706874,120.43379519745156 A321.0,321.0,0,0,1,-313.96148887897994,66.8519521098236 Z" fill="#FFA15A" fill-opacity="0.9" />
<path d="M-276.9457741984974,115.3301268255389 A300,300,0,0,0,-268.2119207046614,134.39630051424942 L-286.9867551539877,143.8040415502469 A321.0,321.0,0,0,1,-296.3319783923923,123.40323570332663 Z" fill="#19D3F3" fill-opacity="0.9" />
<path d="M-266.8545696145097,137.07165526050525 A300,300,0,0,0,-245.14431945841656,172.9284899525518 L-262.30442182050575,185.0334842492304 A321.0,321.0,0,0,1,-285.5343894875254,146.66667112874063 Z" fill="#FF6692" fill-opacity="0.9" />
<path d="M-243.40280626633216,175.37124593750931 A300,300,0,0,0,-223.70644308425264,199.8885372466166 L-239.36589410015034,213.88073485387977 A321.0,321.0,0,0,1,-260.4410027049754,187.64723315313498 Z" fill="#B6E880" fill-opacity="0.9" />
<path d="M-221.69640579743262,202.11557004966264 A300,300,0,0,0,-139.0584079430519,265.8246775232574 L-148.79249649906552,284.43240494988544 A321.0,321.0,0,0,1,-237.21515420325292,216.26365995313904 Z" fill="#FF97FF" fill-opacity="0.9" />
<path d="M-136.39325260925443,267.20194730328615 A300,300,0,0,0,-126.97058692277137,271.8059419079851 L-135.85852800736538,290.832357841544 A321.0,321.0,0,0,1,-145.94078029190226,285.9060836145162 Z" fill="#FECB52" fill-opacity="0.9" />
<path d="M-124.24622432801348,273.0620364317108 A300,300,0,0,0,-114.62615701925388,277.23788364326646 L-122.64998801060166,296.6445354982951 A321.0,321.0,0,0,1,-132.94346003097442,292.17637898193055 Z" fill="#636EFA" fill-opacity="0.9" />
<path d="M-111.84809312881397,278.37026433052824 A300,300,0,0,0,-102.05006645435547,282.10952471808116 L-109.19357110616036,301.85719144834684 A321.0,321.0,0,0,1,-119.67745964783096,297.85618283366523 Z" fill="#EF553B" fill-opacity="0.9" />
<path d="M-99.22391576439175,283.11590301567463 A300,300,0,0,0,-79.20245897730948,289.35613090437124 L-84.74663110572115,309.6110600676773 A321.0,321.0,0,0,1,-106.16958986789918,302.93401622677186 Z" fill="#00CC96" fill-opacity="0.9" />
<path d="M-76.30498580409856,290.1336746078199 A300,300,0,0,0,-45.51273691998203,296.5275548377461 L-48.69862850438078,317.28448367638833 A321.0,321.0,0,0,1,-81.64633481038547,310.4430318303673 Z" fill="#AB63FA" fill-opacity="0.9" />
<path d="M-42.545235174734245,296.9678483673385 A300,300,0,0,0,-11.223042351792666,299.78999869970625 L-12.008655316418153,320.7752986086857 A321.0,321.0,0,0,1,-45.523401636965644,317.7555977530522 Z" fill="#FFA15A" fill-opacity="0.9" />
<path d="M-8.22463118210429,299.88723787770357 A300,300,0,0,0,12.746162065378078,299.72910327928304 L13.638393409954544,320.71014050883286 A321.0,321.0,0,0,1,-8.80035536485159,320.8793445291428 Z" fill="#19D3F3" fill-opacity="0.9" />
<path d="M15.742765840777686,299.58665745270173 A300,300,0,0,0,36.63399973276893,297.7548489337822 L39.19837971406275,318.597688359147 A321.0,321.0,0,0,1,16.844759449632125,320.55772347439085 Z" fill="#FF6692" fill-opacity="0.9" />
<path d="M39.60966691182414,297.37362742370806 A300,300,0,0,0,70.52292341819678,291.59306794324027 L75.45952805747056,312.00458269926713 A321.0,321.0,0,0,1,42.38234359565183,318.18978134336766 Z" fill="#B6E880" fill-opacity="0.9" />
<path d="M73.435279382241,290.8732709309197 A300,300,0,0,0,260.43036405565704,148.91616929614446 L278.66048953955305,159.3403011468746 A321.0,321.0,0,0,1,78.57574893899788,311.23439989608414 Z" fill="#FF97FF" fill-opacity="0.9" />
<path d="M261.90647951969044,146.30446331401498 A300,300,0,0,0,298.7880064014311,26.939324985202582 L319.7031668495313,28.825077734166765 A321.0,321.0,0,0,1,280.2399330860688,156.54577574599605 Z" fill="#FECB52" fill-opacity="0.9" />
<path d="M299.0424558855926,23.950147763915833 A300,300,0,0,0,299.9850001249996,2.9999500002518737 L320.9839501337496,3.209946500269505 A321.0,321.0,0,0,1,319.9754277975841,25.626658107389943 Z" fill="#636EFA" fill-opacity="0.9" />
<path d="M297.0,-0.0 A297.0,297.0,0,0,0,296.81852739831714,-10.380837783843258 C118.72741095932686,-4.152335113537304,-22.116303994221937,116.72321576119792,-55.290759985554836,291.8080394029948 A297.0,297.0,0,0,0,-45.05760955078221,293.56227928936863 C-18.023043820312886,117.42491171574746,118.80000000000001,-0.0,297.0,-0.0 Z" fill="url(#WW0WPTLZ0)" fill-opacity="0.6" />
<path d="M196.2321248805468,-222.93934862393738 A297.0,297.0,0,0,0,188.3199768403562,-229.66189567023892 C75.32799073614248,-91.86475826809557,-117.18966517511383,19.494162617171114,-292.97416293778457,48.735406542927784 A297.0,297.0,0,0,0,-291.0917348797847,58.9457537459412 C-116.4366939519139,23.57830149837648,78.49284995221872,-89.17573944957496,196.2321248805468,-222.93934862393738 Z" fill="url(#WW0WPTLZ1)" fill-opacity="0.6" />
<path d="M203.9044698619102,-215.9443612839505 A297.0,297.0,0,0,0,196.2321248805468,-222.93934862393738 C78.49284995221872,-89.17573944957496,-108.00721803815848,49.47606342119078,-270.0180450953962,123.69015855297694 A297.0,297.0,0,0,0,-265.52980149761476,133.05233750910693 C-106.21192059904591,53.22093500364278,81.56178794476409,-86.37774451358021,203.9044698619102,-215.9443612839505 Z" fill="url(#WW0WPTLZ2)" fill-opacity="0.6" />
<path d="M211.32763588946486,-208.68548178867107 A297.0,297.0,0,0,0,203.9044698619102,-215.9443612839505 C81.56178794476409,-86.37774451358021,-99.41135800548297,65.04476842533684,-248.5283950137074,162.6119210633421 A297.0,297.0,0,0,0,-242.6928762638324,171.19920505302628 C-97.07715050553297,68.47968202121051,84.53105435578595,-83.47419271546843,211.32763588946486,-208.68548178867107 Z" fill="url(#WW0WPTLZ3)" fill-opacity="0.6" />
<path d="M232.01293501848625,-185.41574362525873 A297.0,297.0,0,0,0,211.32763588946486,-208.68548178867107 C84.53105435578595,-83.47419271546843,-65.78450460519569,98.92339942525726,-164.46126151298924,247.30849856314313 A297.0,297.0,0,0,0,-137.66782386362138,263.16643074802477 C-55.06712954544855,105.26657229920991,92.8051740073945,-74.1662974501035,232.01293501848625,-185.41574362525873 Z" fill="url(#WW0WPTLZ4)" fill-opacity="0.6" />
<path d="M244.39955071113135,-168.75384325163418 A297.0,297.0,0,0,0,232.01293501848625,-185.41574362525873 C92.8051740073945,-74.1662974501035,-39.292670642699136,112.11389759420716,-98.23167660674784,280.2847439855179 A297.0,297.0,0,0,0,-78.41043438753638,286.4625695953275 C-31.364173755014555,114.58502783813101,97.75982028445254,-67.50153730065368,244.39955071113135,-168.75384325163418 Z" fill="url(#WW0WPTLZ5)" fill-opacity="0.6" />
<path d="M250.1485555928743,-160.1084011999329 A297.0,297.0,0,0,0,244.39955071113135,-168.75384325163418 C97.75982028445254,-67.50153730065368,-26.182537210383806,115.87887963398191,-65.45634302595951,289.6971990849548 A297.0,297.0,0,0,0,-55.290759985554836,291.8080394029948 C-22.116303994221937,116.72321576119792,100.05942223714972,-64.04336047997316,250.1485555928743,-160.1084011999329 Z" fill="url(#WW0WPTLZ6)" fill-opacity="0.6" />
<path d="M260.7228405084873,-142.24134573739764 A297.0,297.0,0,0,0,250.1485555928743,-160.1084011999329 C100.05942223714972,-64.04336047997316,-3.2569539481132987,118.75534619957062,-8.142384870283246,296.88836549892653 A297.0,297.0,0,0,0,12.618700444724297,296.7318122464902 C5.047480177889719,118.6927248985961,104.28913620339493,-56.89653829495906,260.7228405084873,-142.24134573739764 Z" fill="url(#WW0WPTLZ7)" fill-opacity="0.6" />
<path d="M265.5351983673097,-133.04156654231588 A297.0,297.0,0,0,0,260.7228405084873,-142.24134573739764 C104.28913620339493,-56.89653829495906,23.87403991946862,116.37641607268898,59.685099798671544,290.9410401817224 A297.0,297.0,0,0,0,69.81769418401481,288.6771372638079 C27.927077673605925,115.47085490552315,106.21407934692388,-53.216626616926355,265.5351983673097,-133.04156654231588 Z" fill="url(#WW0WPTLZ8)" fill-opacity="0.6" />
<path d="M293.67220764722776,-44.33547626453938 A297.0,297.0,0,0,0,265.5351983673097,-133.04156654231588 C106.21407934692388,-53.216626616926355,79.81803640866363,87.9915965525416,199.54509102165906,219.97899138135398 A297.0,297.0,0,0,0,257.8260604151003,147.42700760318326 C103.13042416604013,58.97080304127331,117.46888305889111,-17.734190505815754,293.67220764722776,-44.33547626453938 Z" fill="url(#WW0WPTLZ9)" fill-opacity="0.6" />
<path d="M296.6998799479137,-13.348454550755354 A297.0,297.0,0,0,0,293.67220764722776,-44.33547626453938 C117.46888305889111,-17.734190505815754,116.55312951254933,22.99582572622487,291.3828237813733,57.48956431556217 A297.0,297.0,0,0,0,295.80012633741677,26.669931735350556 C118.32005053496671,10.667972694140223,118.67995197916548,-5.339381820302142,296.6998799479137,-13.348454550755354 Z" fill="url(#WW0WPTLZ10)" fill-opacity="0.6" />
<path d="M133.72650275398635,-265.1909170035582 A297.0,297.0,0,0,0,124.3757566680224,-269.70293130267765 C49.75030266720896,-107.88117252107106,-118.65177168499189,5.932712365567874,-296.6294292124797,14.831780913919685 A297.0,297.0,0,0,0,-295.92977794659487,25.19060389270327 C-118.37191117863796,10.076241557081309,53.49060110159454,-106.07636680142328,133.72650275398635,-265.1909170035582 Z" fill="url(#WW0WPTLZ11)" fill-opacity="0.6" />
<path d="M142.91383000918452,-260.3548294003895 A297.0,297.0,0,0,0,133.72650275398635,-265.1909170035582 C53.49060110159454,-106.07636680142328,-111.61234255071969,40.695515604803575,-279.0308563767992,101.73878901200892 A297.0,297.0,0,0,0,-275.30435698112643,111.42939929483835 C-110.12174279245058,44.57175971793534,57.16553200367381,-104.14193176015581,142.91383000918452,-260.3548294003895 Z" fill="url(#WW0WPTLZ12)" fill-opacity="0.6" />
<path d="M151.92651117314887,-255.20057837464844 A297.0,297.0,0,0,0,142.91383000918452,-260.3548294003895 C57.16553200367381,-104.14193176015581,-101.62408107597787,61.5303676688436,-254.06020268994467,153.825919172109 A297.0,297.0,0,0,0,-248.5283950137074,162.6119210633421 C-99.41135800548297,65.04476842533684,60.77060446925955,-102.08023134985939,151.92651117314887,-255.20057837464844 Z" fill="url(#WW0WPTLZ13)" fill-opacity="0.6" />
<path d="M169.38410676538413,-243.9631619226414 A297.0,297.0,0,0,0,151.92651117314887,-255.20057837464844 C60.77060446925955,-102.08023134985939,-93.90128275275043,72.7735466868835,-234.75320688187608,181.93386671720876 A297.0,297.0,0,0,0,-221.4693786534101,197.88965187415045 C-88.58775146136405,79.15586074966018,67.75364270615366,-97.58526476905656,169.38410676538413,-243.9631619226414 Z" fill="url(#WW0WPTLZ14)" fill-opacity="0.6" />
<path d="M177.80768735331003,-237.89372904317497 A297.0,297.0,0,0,0,169.38410676538413,-243.9631619226414 C67.75364270615366,-97.58526476905656,-8.591037666011083,118.48896181426005,-21.477594165027707,296.2224045356501 A297.0,297.0,0,0,0,-11.110811928274739,296.79209871270916 C-4.444324771309896,118.71683948508367,71.12307494132402,-95.15749161727,177.80768735331003,-237.89372904317497 Z" fill="url(#WW0WPTLZ15)" fill-opacity="0.6" />
<path d="M186.0139802400694,-231.53358105304525 A297.0,297.0,0,0,0,177.80768735331003,-237.89372904317497 C71.12307494132402,-95.15749161727,76.6937560151228,90.72765724018679,191.734390037807,226.81914310046696 A297.0,297.0,0,0,0,199.54509102165906,219.97899138135398 C79.81803640866363,87.9915965525416,74.40559209602776,-92.6134324212181,186.0139802400694,-231.53358105304525 Z" fill="url(#WW0WPTLZ16)" fill-opacity="0.6" />
<path d="M112.12846717553498,-275.02037533401955 A297.0,297.0,0,0,0,102.44735556524812,-278.771482289146 C40.97894222609925,-111.5085929156584,-118.7866352505919,1.7819331757513028,-296.96658812647973,4.454832939378257 A297.0,297.0,0,0,0,-296.6294292124797,14.831780913919685 C-118.65177168499189,5.932712365567874,44.85138687021399,-110.00815013360783,112.12846717553498,-275.02037533401955 Z" fill="url(#WW0WPTLZ17)" fill-opacity="0.6" />
<path d="M121.67255356924908,-270.9331831059795 A297.0,297.0,0,0,0,112.12846717553498,-275.02037533401955 C44.85138687021399,-110.00815013360783,-112.96654781617667,36.76954003649583,-282.4163695404417,91.92385009123959 A297.0,297.0,0,0,0,-279.0308563767992,101.73878901200892 C-111.61234255071969,40.695515604803575,48.66902142769963,-108.3732732423918,121.67255356924908,-270.9331831059795 Z" fill="url(#WW0WPTLZ18)" fill-opacity="0.6" />
<path d="M99.65456487894606,-279.7820003123645 A297.0,297.0,0,0,0,89.81464523840735,-283.09420605285976 C35.92585809536294,-113.23768242114392,115.67815598993519,27.05557662974904,289.19538997483795,67.6389415743726 A297.0,297.0,0,0,0,291.3828237813733,57.48956431556217 C116.55312951254933,22.99582572622487,39.861825951578425,-111.91280012494582,99.65456487894606,-279.7820003123645 Z" fill="url(#WW0WPTLZ19)" fill-opacity="0.6" />
<path d="M46.5486487984191,-293.32954725878096 A297.0,297.0,0,0,0,36.26765973544315,-294.77730044444417 C14.507063894177259,-117.91092017777767,19.791827187978775,117.13976086948952,49.479567969946935,292.8494021737238 A297.0,297.0,0,0,0,59.685099798671544,290.9410401817224 C23.87403991946862,116.37641607268898,18.61945951936764,-117.33181890351239,46.5486487984191,-293.32954725878096 Z" fill="url(#WW0WPTLZ20)" fill-opacity="0.6" />
<path d="M86.97925966517124,-283.97818294386406 A297.0,297.0,0,0,0,46.5486487984191,-293.32954725878096 C18.61945951936764,-117.33181890351239,63.299276718371246,100.5317938113663,158.2481917959281,251.32948452841572 A297.0,297.0,0,0,0,191.734390037807,226.81914310046696 C76.6937560151228,90.72765724018679,34.791703866068495,-113.59127317754563,86.97925966517124,-283.97818294386406 Z" fill="url(#WW0WPTLZ21)" fill-opacity="0.6" />
<path d="M33.31812249242783,-295.12523225502014 A297.0,297.0,0,0,0,22.982454181551343,-296.10945071002527 C9.192981672620538,-118.44378028401012,118.67995197916547,5.339381820302826,296.69987994791364,13.348454550757063 A297.0,297.0,0,0,0,296.9851501237496,2.969950500249355 C118.79406004949983,1.1879802000997421,13.327248996971134,-118.05009290200806,33.31812249242783,-295.12523225502014 Z" fill="url(#WW0WPTLZ22)" fill-opacity="0.6" />
<path d="M-62.556146527855454,-290.3372668666313 A297.0,297.0,0,0,0,-82.68681976944326,-285.25758506377286 C-33.07472790777731,-114.10303402550915,-16.84791312919476,117.59926795346605,-42.119782822986906,293.9981698836651 A297.0,297.0,0,0,0,-21.477594165027707,296.2224045356501 C-8.591037666011083,118.48896181426005,-25.022458611142184,-116.13490674665252,-62.556146527855454,-290.3372668666313 Z" fill="url(#WW0WPTLZ23)" fill-opacity="0.6" />
<path d="M9.65080084755155,-296.84316068085667 A297.0,297.0,0,0,0,-62.556146527855454,-290.3372668666313 C-25.022458611142184,-116.13490674665252,37.05641976878521,112.87276799086476,92.64104942196303,282.1819199771619 A297.0,297.0,0,0,0,158.2481917959281,251.32948452841572 C63.299276718371246,100.5317938113663,3.8603203390206198,-118.73726427234267,9.65080084755155,-296.84316068085667 Z" fill="url(#WW0WPTLZ24)" fill-opacity="0.6" />
<path d="M20.020259912646363,-296.32446607229394 A297.0,297.0,0,0,0,9.65080084755155,-296.84316068085667 C3.8603203390206198,-118.73726427234267,114.66181939711656,31.082264598047313,286.6545484927914,77.70566149511828 A297.0,297.0,0,0,0,289.19538997483795,67.6389415743726 C115.67815598993519,27.05557662974904,8.008103965058545,-118.52978642891759,20.020259912646363,-296.32446607229394 Z" fill="url(#WW0WPTLZ25)" fill-opacity="0.6" />
<path d="M-105.19610322092771,-277.74589081952575 A297.0,297.0,0,0,0,-114.83968849765549,-273.899335424096 C-45.9358753990622,-109.55973416963842,-69.20191092593238,96.5636345846578,-173.00477731483093,241.4090864616445 A297.0,297.0,0,0,0,-164.46126151298924,247.30849856314313 C-65.78450460519569,98.92339942525726,-42.07844128837109,-111.09835632781031,-105.19610322092771,-277.74589081952575 Z" fill="url(#WW0WPTLZ26)" fill-opacity="0.6" />
<path d="M-95.42396433788079,-281.25303025930737 A297.0,297.0,0,0,0,-105.19610322092771,-277.74589081952575 C-42.07844128837109,-111.09835632781031,10.376940089675351,118.34592985977713,25.942350224188374,295.8648246494428 A297.0,297.0,0,0,0,36.26765973544124,294.77730044444445 C14.507063894176497,117.91092017777778,-38.16958573515232,-112.50121210372295,-95.42396433788079,-281.25303025930737 Z" fill="url(#WW0WPTLZ27)" fill-opacity="0.6" />
<path d="M-85.53521377085211,-284.4164678867499 A297.0,297.0,0,0,0,-95.42396433788079,-281.25303025930737 C-38.16958573515232,-112.50121210372295,33.08861296868076,114.09900828582539,82.72153242170191,285.24752071456345 A297.0,297.0,0,0,0,92.64104942196303,282.1819199771619 C37.05641976878521,112.87276799086476,-34.214085508340844,-113.76658715469996,-85.53521377085211,-284.4164678867499 Z" fill="url(#WW0WPTLZ28)" fill-opacity="0.6" />
<path d="M-154.44000784913996,-253.68737448985826 A297.0,297.0,0,0,0,-163.21260331163154,-248.13433079733244 C-65.28504132465262,-99.25373231893298,-109.67052658260498,45.670730222913406,-274.17631645651244,114.17682555728351 A297.0,297.0,0,0,0,-270.0180450953962,123.69015855297694 C-108.00721803815848,49.47606342119078,-61.776003139655984,-101.4749497959433,-154.44000784913996,-253.68737448985826 Z" fill="url(#WW0WPTLZ29)" fill-opacity="0.6" />
<path d="M-117.57289426566028,-272.737262826325 A297.0,297.0,0,0,0,-154.44000784913996,-253.68737448985826 C-61.776003139655984,-101.4749497959433,109.21024028605532,46.76070376568406,273.0256007151383,116.90175941421015 A297.0,297.0,0,0,0,286.6545484927914,77.70566149511828 C114.66181939711656,31.082264598047313,-47.029157706264115,-109.09490513053,-117.57289426566028,-272.737262826325 Z" fill="url(#WW0WPTLZ30)" fill-opacity="0.6" />
<path d="M-165.68574470192922,-246.4898253530298 A297.0,297.0,0,0,0,-198.42477866619708,-220.99006134048355 C-79.36991146647884,-88.39602453619342,-81.98568065684886,85.9755091129631,-204.96420164212213,214.9387727824077 A297.0,297.0,0,0,0,-173.00477731483093,241.4090864616445 C-69.20191092593238,96.5636345846578,-66.2742978807717,-98.59593014121192,-165.68574470192922,-246.4898253530298 Z" fill="url(#WW0WPTLZ31)" fill-opacity="0.6" />
<path d="M-200.62472129185258,-218.99479721346458 A297.0,297.0,0,0,0,-208.15651110748857,-211.84868865196685 C-83.26260444299544,-84.73947546078675,29.08037063536744,115.1858152886442,72.7009265884186,287.9645382216105 A297.0,297.0,0,0,0,82.72153242170191,285.24752071456345 C33.08861296868076,114.09900828582539,-80.24988851674104,-87.59791888538584,-200.62472129185258,-218.99479721346458 Z" fill="url(#WW0WPTLZ32)" fill-opacity="0.6" />
<path d="M-217.46755706423,-202.27916754949302 A297.0,297.0,0,0,0,-224.40480562322014,-194.55457643860447 C-89.76192224928806,-77.8218305754418,-114.18270369890413,32.79863070325137,-285.4567592472603,81.99657675812843 A297.0,297.0,0,0,0,-282.4163695404417,91.92385009123959 C-112.96654781617667,36.76954003649583,-86.98702282569201,-80.91166701979722,-217.46755706423,-202.27916754949302 Z" fill="url(#WW0WPTLZ33)" fill-opacity="0.6" />
<path d="M-210.26455494724618,-209.7565658873078 A297.0,297.0,0,0,0,-217.46755706423,-202.27916754949302 C-86.98702282569201,-80.91166701979722,-84.94062900269218,83.05738705634201,-212.35157250673043,207.64346764085502 A297.0,297.0,0,0,0,-204.96420164212213,214.9387727824077 C-81.98568065684886,85.9755091129631,-84.10582197889848,-83.90262635492313,-210.26455494724618,-209.7565658873078 Z" fill="url(#WW0WPTLZ34)" fill-opacity="0.6" />
<path d="M-226.33909881522607,-192.30083813522845 A297.0,297.0,0,0,0,-232.9221609743316,-184.27226304316 C-93.16886438973265,-73.708905217264,-117.79942620686819,15.386201133893241,-294.49856551717045,38.4655028347331 A297.0,297.0,0,0,0,-292.97416293778457,48.735406542927784 C-117.18966517511383,19.494162617171114,-90.53563952609043,-76.92033525409138,-226.33909881522607,-192.30083813522845 Z" fill="url(#WW0WPTLZ35)" fill-opacity="0.6" />
<path d="M-246.88987658872662,-165.08903306399048 A297.0,297.0,0,0,0,-252.5092662314711,-156.3587876239902 C-101.00370649258844,-62.54351504959608,-118.26523189619486,11.25943713243501,-295.66307974048715,28.148592831087523 A297.0,297.0,0,0,0,-294.49856551717045,38.4655028347331 C-117.79942620686819,15.386201133893241,-98.75595063549065,-66.0356132255962,-246.88987658872662,-165.08903306399048 Z" fill="url(#WW0WPTLZ36)" fill-opacity="0.6" />
<path d="M-240.96877820366757,-173.61753347813598 A297.0,297.0,0,0,0,-246.88987658872662,-165.08903306399048 C-98.75595063549065,-66.0356132255962,-87.79177669578333,80.03776573966641,-219.4794417394583,200.09441434916602 A297.0,297.0,0,0,0,-212.35157250673043,207.64346764085502 C-84.94062900269218,83.05738705634201,-96.38751128146703,-69.4470133912544,-240.96877820366757,-173.61753347813598 Z" fill="url(#WW0WPTLZ37)" fill-opacity="0.6" />
<path d="M-234.75320688187475,-181.93386671721052 A297.0,297.0,0,0,0,-240.96877820366757,-173.61753347813598 C-96.38751128146703,-69.4470133912544,-44.291844879010334,110.23462467488918,-110.72961219752582,275.5865616872229 A297.0,297.0,0,0,0,-101.02956578981191,279.2884294709003 C-40.41182631592477,111.71537178836013,-93.9012827527499,-72.77354668688422,-234.75320688187475,-181.93386671721052 Z" fill="url(#WW0WPTLZ38)" fill-opacity="0.6" />
<path d="M-254.06020268994357,-153.8259191721109 A297.0,297.0,0,0,0,-259.2815392148932,-144.85193620506354 C-103.71261568595729,-57.94077448202542,15.68542809708236,117.7599564597884,39.2135702427059,294.399891149471 A297.0,297.0,0,0,0,49.479567969946935,292.8494021737238 C19.791827187978775,117.13976086948952,-101.62408107597743,-61.53036766884436,-254.06020268994357,-153.8259191721109 Z" fill="url(#WW0WPTLZ39)" fill-opacity="0.6" />
<path d="M-270.0180450953953,-123.69015855297894 A297.0,297.0,0,0,0,-274.1763164565116,-114.17682555728551 C-109.67052658260464,-45.67073022291421,-96.38751128146754,69.44701339125369,-240.96877820366882,173.61753347813422 A297.0,297.0,0,0,0,-234.75320688187608,181.93386671720876 C-93.90128275275043,72.7735466868835,-108.00721803815811,-49.47606342119158,-270.0180450953953,-123.69015855297894 Z" fill="url(#WW0WPTLZ40)" fill-opacity="0.6" />
<path d="M-265.5298014976138,-133.05233750910887 A297.0,297.0,0,0,0,-270.0180450953953,-123.69015855297894 C-108.00721803815811,-49.47606342119158,-30.216774378423032,114.8929351446967,-75.54193594605758,287.2323378617417 A297.0,297.0,0,0,0,-65.45634302595951,289.6971990849548 C-26.182537210383806,115.87887963398191,-106.21192059904553,-53.22093500364355,-265.5298014976138,-133.05233750910887 Z" fill="url(#WW0WPTLZ41)" fill-opacity="0.6" />
<path d="M-260.717070466148,-142.251921489833 A297.0,297.0,0,0,0,-265.5298014976138,-133.05233750910887 C-106.21192059904553,-53.22093500364355,118.42081253069466,9.484258514510671,296.05203132673665,23.710646286276678 A297.0,297.0,0,0,0,296.69987994791364,13.348454550757063 C118.67995197916547,5.339381820302826,-104.28682818645922,-56.9007685959332,-260.717070466148,-142.251921489833 Z" fill="url(#WW0WPTLZ42)" fill-opacity="0.6" />
<path d="M-279.03085637679845,-101.73878901201097 A297.0,297.0,0,0,0,-282.416369540441,-91.92385009124166 C-112.9665478161764,-36.769540036496664,-49.20150483389334,108.13256642695747,-123.00376208473334,270.33141606739366 A297.0,297.0,0,0,0,-113.47989544906135,274.4655048068338 C-45.39195817962454,109.78620192273353,-111.61234255071939,-40.69551560480439,-279.03085637679845,-101.73878901201097 Z" fill="url(#WW0WPTLZ43)" fill-opacity="0.6" />
<path d="M-275.3043569811256,-111.42939929484038 A297.0,297.0,0,0,0,-279.03085637679845,-101.73878901201097 C-111.61234255071939,-40.69551560480439,107.50911588576899,50.54928289758715,268.77278971442246,126.37320724396787 A297.0,297.0,0,0,0,273.0256007151383,116.90175941421015 C109.21024028605532,46.76070376568406,-110.12174279245023,-44.57175971793615,-275.3043569811256,-111.42939929484038 Z" fill="url(#WW0WPTLZ44)" fill-opacity="0.6" />
<path d="M-283.32147201998436,-89.09513731079382 A297.0,297.0,0,0,0,-286.2624386297908,-79.13795694687386 C-114.50497545191632,-31.655182778749545,-115.25932401053784,28.78764020606512,-288.1483100263446,71.9691005151628 A297.0,297.0,0,0,0,-285.4567592472603,81.99657675812843 C-114.18270369890413,32.79863070325137,-113.32858880799375,-35.63805492431753,-283.32147201998436,-89.09513731079382 Z" fill="url(#WW0WPTLZ45)" fill-opacity="0.6" />
<path d="M-287.0394920070101,-76.2714234058706 A297.0,297.0,0,0,0,-289.5299683387237,-66.19212516438554 C-115.81198733548948,-26.47685006575422,-54.01172803326475,105.8119711321013,-135.02932008316188,264.52992783025326 A297.0,297.0,0,0,0,-125.70088105354365,269.0878824889052 C-50.28035242141746,107.6351529955621,-114.81579680280404,-30.508569362348243,-287.0394920070101,-76.2714234058706 Z" fill="url(#WW0WPTLZ46)" fill-opacity="0.6" />
<path d="M-295.20892653774763,-32.56823133715911 A297.0,297.0,0,0,0,-296.166883421515,-22.23009591492403 C-118.46675336860602,-8.892038365969611,-103.71261568595772,57.94077448202466,-259.2815392148943,144.85193620506163 A297.0,297.0,0,0,0,-254.06020268994467,153.825919172109 C-101.62408107597787,61.5303676688436,-118.08357061509906,-13.027292534863646,-295.20892653774763,-32.56823133715911 Z" fill="url(#WW0WPTLZ47)" fill-opacity="0.6" />
<path d="M-293.89021320994783,-42.86656715216885 A297.0,297.0,0,0,0,-295.20892653774763,-32.56823133715911 C-118.08357061509906,-13.027292534863646,6.234135272947963,118.63631635126988,15.585338182369908,296.5907908781747 A297.0,297.0,0,0,0,25.942350224188374,295.8648246494428 C10.376940089675351,118.34592985977713,-117.55608528397914,-17.14662686086754,-293.89021320994783,-42.86656715216885 Z" fill="url(#WW0WPTLZ48)" fill-opacity="0.6" />
<path d="M-290.1774021806219,-63.29356415707356 A297.0,297.0,0,0,0,-293.89021320994783,-42.86656715216885 C-117.55608528397914,-17.14662686086754,103.71496588979743,57.936567472349935,259.28741472449354,144.84141868087482 A297.0,297.0,0,0,0,268.77278971442246,126.37320724396787 C107.50911588576899,50.54928289758715,-116.07096087224878,-25.317425662829425,-290.1774021806219,-63.29356415707356 Z" fill="url(#WW0WPTLZ49)" fill-opacity="0.6" />
<path d="M-296.86672114710626,-8.896621570362411 A297.0,297.0,0,0,0,-296.9962875077344,1.484993812506611 C-118.79851500309377,0.5939975250026445,-116.19509308044492,24.741470126626304,-290.4877327011123,61.853675316565756 A297.0,297.0,0,0,0,-288.1483100263446,71.9691005151628 C-115.25932401053784,28.78764020606512,-118.74668845884251,-3.5586486281449647,-296.86672114710626,-8.896621570362411 Z" fill="url(#WW0WPTLZ50)" fill-opacity="0.6" />
<path d="M-296.3743724548982,-19.267364946076132 A297.0,297.0,0,0,0,-296.86672114710626,-8.896621570362411 C-118.74668845884251,-3.5586486281449647,-105.67440956734583,54.280375483160086,-264.1860239183646,135.7009387079002 A297.0,297.0,0,0,0,-259.2815392148943,144.85193620506163 C-103.71261568595772,57.94077448202466,-118.54974898195928,-7.706945978430453,-296.3743724548982,-19.267364946076132 Z" fill="url(#WW0WPTLZ51)" fill-opacity="0.6" />
<text x="330.0" y="0" font-size="12" text-anchor="start" dominant-baseline="middle" transform="rotate(-1.001514)" font-family="Arial">TRAV10</text>
<text x="330.0" y="0" font-size="12" text-anchor="start" dominant-baseline="middle" transform="rotate(-26.612324)" font-family="Arial">TRAV12</text>
<text x="330.0" y="0" font-size="12" text-anchor="start" dominant-baseline="middle" transform="rotate(-58.232218)" font-family="Arial">TRAV14</text>
<text x="330.0" y="0" font-size="12" text-anchor="start" dominant-baseline="middle" transform="rotate(-67.818803)" font-family="Arial">TRAV16</text>
<text x="330.0" y="0" font-size="12" text-anchor="start" dominant-baseline="middle" transform="rotate(-71.396303)" font-family="Arial">TRAV17</text>
<text x="330.0" y="0" font-size="12" text-anchor="start" dominant-baseline="middle" transform="rotate(-77.978345)" font-family="Arial">TRAV19</text>
<text x="330.0" y="0" font-size="12" text-anchor="start" dominant-baseline="middle" transform="rotate(-84.560387)" font-family="Arial">TRAV20</text>
<text x="-330.0" y="0" font-size="12" text-anchor="end" dominant-baseline="middle" transform="rotate(83.850000)" font-family="Arial">TRAV21</text>
<text x="-330.0" y="0" font-size="12" text-anchor="end" dominant-baseline="middle" transform="rotate(70.257359)" font-family="Arial">TRAV24</text>
<text x="-330.0" y="0" font-size="12" text-anchor="end" dominant-baseline="middle" transform="rotate(61.672289)" font-family="Arial">TRAV26</text>
<text x="-330.0" y="0" font-size="12" text-anchor="end" dominant-baseline="middle" transform="rotate(52.085704)" font-family="Arial">TRAV27</text>
<text x="-330.0" y="0" font-size="12" text-anchor="end" dominant-baseline="middle" transform="rotate(46.505176)" font-family="Arial">TRAV29</text>
<text x="-330.0" y="0" font-size="12" text-anchor="end" dominant-baseline="middle" transform="rotate(42.927676)" font-family="Arial">TRAV30</text>
<text x="-330.0" y="0" font-size="12" text-anchor="end" dominant-baseline="middle" transform="rotate(39.350176)" font-family="Arial">TRAV35</text>
<text x="-330.0" y="0" font-size="12" text-anchor="end" dominant-baseline="middle" transform="rotate(34.771162)" font-family="Arial">TRAV38</text>
<text x="-330.0" y="0" font-size="12" text-anchor="end" dominant-baseline="middle" transform="rotate(30.192148)" font-family="Arial">TRAV39</text>
<text x="-330.0000000000001" y="0" font-size="12" text-anchor="end" dominant-baseline="middle" transform="rotate(25.613134)" font-family="Arial">TRAV4</text>
<text x="-330.0" y="0" font-size="12" text-anchor="end" dominant-baseline="middle" transform="rotate(20.032606)" font-family="Arial">TRAV5</text>
<text x="-330.0" y="0" font-size="12" text-anchor="end" dominant-baseline="middle" transform="rotate(16.455106)" font-family="Arial">TRAV6</text>
<text x="-330.0" y="0" font-size="12" text-anchor="end" dominant-baseline="middle" transform="rotate(13.879120)" font-family="Arial">TRAV7</text>
<text x="-330.0" y="0" font-size="12" text-anchor="end" dominant-baseline="middle" transform="rotate(8.298592)" font-family="Arial">TRAV8</text>
<text x="-330.0" y="0" font-size="12" text-anchor="end" dominant-baseline="middle" transform="rotate(1.716549)" font-family="Arial">TRAV9</text>
<text x="-330.0" y="0" font-size="12" text-anchor="end" dominant-baseline="middle" transform="rotate(-2.862465)" font-family="Arial">TRBV1</text>
<text x="-330.0" y="0" font-size="12" text-anchor="end" dominant-baseline="middle" transform="rotate(-8.442993)" font-family="Arial">TRBV10</text>
<text x="-330.0" y="0" font-size="12" text-anchor="end" dominant-baseline="middle" transform="rotate(-17.028063)" font-family="Arial">TRBV11</text>
<text x="-330.0" y="0" font-size="12" text-anchor="end" dominant-baseline="middle" transform="rotate(-24.611620)" font-family="Arial">TRBV12</text>
<text x="-330.0" y="0" font-size="12" text-anchor="end" dominant-baseline="middle" transform="rotate(-31.193662)" font-family="Arial">TRBV13</text>
<text x="-330.0" y="0" font-size="12" text-anchor="end" dominant-baseline="middle" transform="rotate(-38.777218)" font-family="Arial">TRBV17</text>
<text x="-330.0" y="0" font-size="12" text-anchor="end" dominant-baseline="middle" transform="rotate(-52.369859)" font-family="Arial">TRBV19</text>
<text x="-330.0" y="0" font-size="12" text-anchor="end" dominant-baseline="middle" transform="rotate(-63.959472)" font-family="Arial">TRBV2</text>
<text x="-330.0" y="0" font-size="12" text-anchor="end" dominant-baseline="middle" transform="rotate(-66.535458)" font-family="Arial">TRBV20</text>
<text x="-330.0" y="0" font-size="12" text-anchor="end" dominant-baseline="middle" transform="rotate(-69.111444)" font-family="Arial">TRBV25</text>
<text x="-330.0" y="0" font-size="12" text-anchor="end" dominant-baseline="middle" transform="rotate(-72.688944)" font-family="Arial">TRBV27</text>
<text x="-330.0" y="0" font-size="12" text-anchor="end" dominant-baseline="middle" transform="rotate(-78.269472)" font-family="Arial">TRBV28</text>
<text x="-330.0" y="0" font-size="12" text-anchor="end" dominant-baseline="middle" transform="rotate(-84.851514)" font-family="Arial">TRBV29</text>
<text x="330.0" y="0" font-size="12" text-anchor="start" dominant-baseline="middle" transform="rotate(-270.432042)" font-family="Arial">TRBV30</text>
<text x="330.0" y="0" font-size="12" text-anchor="start" dominant-baseline="middle" transform="rotate(-275.011057)" font-family="Arial">TRBV4</text>
<text x="330.0" y="0" font-size="12" text-anchor="start" dominant-baseline="middle" transform="rotate(-280.591585)" font-family="Arial">TRBV5</text>
<text x="330.0" y="0" font-size="12" text-anchor="start" dominant-baseline="middle" transform="rotate(-307.203909)" font-family="Arial">TRBV6</text>
<text x="330.0" y="0" font-size="12" text-anchor="start" dominant-baseline="middle" transform="rotate(-342.829859)" font-family="Arial">TRBV7</text>
<text x="330.0" y="0" font-size="12" text-anchor="start" dominant-baseline="middle" transform="rotate(-357.424014)" font-family="Arial">TRBV9</text>
</svg>