<?xml version="1.0" encoding="UTF-8"?>
<svg xmlns="http://www.w3.org/2000/svg" xmlns:xlink="http://www.w3.org/1999/xlink"
     width="900.0" height="900.0" viewBox="-450 -450 900.0 900.0">
<defs>
<linearGradient x1="199.78128431316" y1="-9.350852270479507" x2="-56.52192065019902" y2="191.8470028069571" gradientUnits="userSpaceOnUse" id="iDCcOgrV0">
<stop offset="0" stop-color="#636EFA" />
<stop offset="1" stop-color="#EF553B" />
</linearGradient>
<linearGradient x1="145.19558786816322" y1="-137.54359768312915" x2="-187.0097920661181" y2="70.90372113921286" gradientUnits="userSpaceOnUse" id="iDCcOgrV1">
<stop offset="0" stop-color="#EF553B" />
<stop offset="1" stop-color="#AB63FA" />
</linearGradient>
<linearGradient x1="145.19558786816322" y1="-137.54359768312915" x2="-130.47047115832905" y2="151.5831658058494" gradientUnits="userSpaceOnUse" id="iDCcOgrV2">
<stop offset="0" stop-color="#EF553B" />
<stop offset="1" stop-color="#FF6692" />
</linearGradient>
<linearGradient x1="157.4082376657631" y1="-123.38009043179797" x2="-76.04806994330595" y2="184.97754203658897" gradientUnits="userSpaceOnUse" id="iDCcOgrV3">
<stop offset="0" stop-color="#EF553B" />
<stop offset="1" stop-color="#636EFA" />
</linearGradient>
<linearGradient x1="163.0046444054171" y1="-115.88565874284669" x2="-15.868957874549384" y2="199.36944644547663" gradientUnits="userSpaceOnUse" id="iDCcOgrV4">
<stop offset="0" stop-color="#EF553B" />
<stop offset="1" stop-color="#AB63FA" />
</linearGradient>
<linearGradient x1="173.11644724051837" y1="-100.15336087631222" x2="34.709024243685235" y2="196.96518381696617" gradientUnits="userSpaceOnUse" id="iDCcOgrV5">
<stop offset="0" stop-color="#EF553B" />
<stop offset="1" stop-color="#19D3F3" />
</linearGradient>
<linearGradient x1="177.6097272369429" y1="-91.9499037020635" x2="142.41586115267958" y2="140.41980804765646" gradientUnits="userSpaceOnUse" id="iDCcOgrV6">
<stop offset="0" stop-color="#EF553B" />
<stop offset="1" stop-color="#FF6692" />
</linearGradient>
<linearGradient x1="197.74482304397515" y1="-29.949707165629512" x2="197.43544380515274" y2="31.925624965885564" gradientUnits="userSpaceOnUse" id="iDCcOgrV7">
<stop offset="0" stop-color="#EF553B" />
<stop offset="1" stop-color="#B6E880" />
</linearGradient>
<linearGradient x1="107.69036543301074" y1="-168.53125880056973" x2="-174.28336277266118" y2="98.10866149659253" gradientUnits="userSpaceOnUse" id="iDCcOgrV8">
<stop offset="0" stop-color="#00CC96" />
<stop offset="1" stop-color="#FFA15A" />
</linearGradient>
<linearGradient x1="122.96142678319501" y1="-157.735498615375" x2="-157.62653524376998" y2="123.1010779280366" gradientUnits="userSpaceOnUse" id="iDCcOgrV9">
<stop offset="0" stop-color="#00CC96" />
<stop offset="1" stop-color="#19D3F3" />
</linearGradient>
<linearGradient x1="122.96142678319501" y1="-157.735498615375" x2="-27.155778212035642" y2="198.1478329674557" gradientUnits="userSpaceOnUse" id="iDCcOgrV10">
<stop offset="0" stop-color="#00CC96" />
<stop offset="1" stop-color="#00CC96" />
</linearGradient>
<linearGradient x1="130.20176554544042" y1="-151.81403179169627" x2="135.6948938337213" y2="146.92479636690024" gradientUnits="userSpaceOnUse" id="iDCcOgrV11">
<stop offset="0" stop-color="#00CC96" />
<stop offset="1" stop-color="#FF6692" />
</linearGradient>
<linearGradient x1="89.69459806331204" y1="-178.75927690125874" x2="-199.73203298576553" y2="10.349637644530244" gradientUnits="userSpaceOnUse" id="iDCcOgrV12">
<stop offset="0" stop-color="#AB63FA" />
<stop offset="1" stop-color="#636EFA" />
</linearGradient>
<linearGradient x1="97.95426793661282" y1="-174.370184931376" x2="-193.33666051000523" y2="51.195074986164215" gradientUnits="userSpaceOnUse" id="iDCcOgrV13">
<stop offset="0" stop-color="#AB63FA" />
<stop offset="1" stop-color="#00CC96" />
</linearGradient>
<linearGradient x1="52.955061019358254" y1="-192.8620271397043" x2="25.462105521798673" y2="198.37258173043168" gradientUnits="userSpaceOnUse" id="iDCcOgrV14">
<stop offset="0" stop-color="#FFA15A" />
<stop offset="1" stop-color="#19D3F3" />
</linearGradient>
<linearGradient x1="61.91427212848867" y1="-190.175242623217" x2="121.37795006605312" y2="158.95720568053125" gradientUnits="userSpaceOnUse" id="iDCcOgrV15">
<stop offset="0" stop-color="#FFA15A" />
<stop offset="1" stop-color="#FF6692" />
</linearGradient>
<linearGradient x1="41.92659750115582" y1="-195.55602885612112" x2="199.67778836794898" y2="11.348164278180864" gradientUnits="userSpaceOnUse" id="iDCcOgrV16">
<stop offset="0" stop-color="#19D3F3" />
<stop offset="1" stop-color="#FF97FF" />
</linearGradient>
<linearGradient x1="-34.42193513847601" y1="-197.01555872905712" x2="-27.155778212035642" y2="198.1478329674557" gradientUnits="userSpaceOnUse" id="iDCcOgrV17">
<stop offset="0" stop-color="#FF6692" />
<stop offset="1" stop-color="#00CC96" />
</linearGradient>
<linearGradient x1="-34.42193513847601" y1="-197.01555872905712" x2="63.812897171195424" y2="189.54660153803457" gradientUnits="userSpaceOnUse" id="iDCcOgrV18">
<stop offset="0" stop-color="#FF6692" />
<stop offset="1" stop-color="#FF6692" />
</linearGradient>
<linearGradient x1="30.763041608881466" y1="-197.6199263003866" x2="195.72687364816704" y2="41.12166013081731" gradientUnits="userSpaceOnUse" id="iDCcOgrV19">
<stop offset="0" stop-color="#FF6692" />
<stop offset="1" stop-color="#B6E880" />
</linearGradient>
<linearGradient x1="-63.536588818986374" y1="-189.6393996015782" x2="-130.47047115832905" y2="151.5831658058494" gradientUnits="userSpaceOnUse" id="iDCcOgrV20">
<stop offset="0" stop-color="#B6E880" />
<stop offset="1" stop-color="#FF6692" />
</linearGradient>
<linearGradient x1="-63.536588818986374" y1="-189.6393996015782" x2="54.88100141625707" y2="192.3228423343124" gradientUnits="userSpaceOnUse" id="iDCcOgrV21">
<stop offset="0" stop-color="#B6E880" />
<stop offset="1" stop-color="#FF6692" />
</linearGradient>
<linearGradient x1="-91.21837998980669" y1="-177.98653643474057" x2="-190.12033329953067" y2="62.082677665153675" gradientUnits="userSpaceOnUse" id="iDCcOgrV22">
<stop offset="0" stop-color="#FF97FF" />
<stop offset="1" stop-color="#AB63FA" />
</linearGradient>
<linearGradient x1="-91.21837998980669" y1="-177.98653643474057" x2="191.03015040692998" y2="59.22399543686417" gradientUnits="userSpaceOnUse" id="iDCcOgrV23">
<stop offset="0" stop-color="#FF97FF" />
<stop offset="1" stop-color="#B6E880" />
</linearGradient>
<linearGradient x1="-101.17052414818697" y1="-172.5239839662333" x2="-137.41495041548086" y2="145.3173472174294" gradientUnits="userSpaceOnUse" id="iDCcOgrV24">
<stop offset="0" stop-color="#FECB52" />
<stop offset="1" stop-color="#FF6692" />
</linearGradient>
<linearGradient x1="-118.46036373833391" y1="-161.14323511392473" x2="54.88100141625707" y2="192.3228423343124" gradientUnits="userSpaceOnUse" id="iDCcOgrV25">
<stop offset="0" stop-color="#636EFA" />
<stop offset="1" stop-color="#FF6692" />
</linearGradient>
<linearGradient x1="-127.4129167246171" y1="-154.16208564924708" x2="-150.38773345215114" y2="131.84661401463725" gradientUnits="userSpaceOnUse" id="iDCcOgrV26">
<stop offset="0" stop-color="#EF553B" />
<stop offset="1" stop-color="#FF6692" />
</linearGradient>
<linearGradient x1="-135.95493047247822" y1="-146.68420801239517" x2="-197.59260332696005" y2="30.938052790610758" gradientUnits="userSpaceOnUse" id="iDCcOgrV27">
<stop offset="0" stop-color="#00CC96" />
<stop offset="1" stop-color="#EF553B" />
</linearGradient>
<linearGradient x1="-156.38766372014834" y1="-124.67116200691241" x2="-198.82300612311073" y2="21.665923386033498" gradientUnits="userSpaceOnUse" id="iDCcOgrV28">
<stop offset="0" stop-color="#AB63FA" />
<stop offset="1" stop-color="#EF553B" />
</linearGradient>
<linearGradient x1="-144.05888162001023" y1="-138.73369679494553" x2="-77.89401216242504" y2="184.2078252117428" gradientUnits="userSpaceOnUse" id="iDCcOgrV29">
<stop offset="0" stop-color="#AB63FA" />
<stop offset="1" stop-color="#FECB52" />
</linearGradient>
<linearGradient x1="-163.20965823437868" y1="-115.59674501912806" x2="25.462105521798673" y2="198.37258173043168" gradientUnits="userSpaceOnUse" id="iDCcOgrV30">
<stop offset="0" stop-color="#FFA15A" />
<stop offset="1" stop-color="#19D3F3" />
</linearGradient>
<linearGradient x1="-174.2833627726609" y1="-98.10866149659303" x2="-168.43581609999148" y2="107.83958389538533" gradientUnits="userSpaceOnUse" id="iDCcOgrV31">
<stop offset="0" stop-color="#19D3F3" />
<stop offset="1" stop-color="#19D3F3" />
</linearGradient>
<linearGradient x1="-169.50577224514726" y1="-106.14986187261984" x2="-56.52192065019902" y2="191.8470028069571" gradientUnits="userSpaceOnUse" id="iDCcOgrV32">
<stop offset="0" stop-color="#19D3F3" />
<stop offset="1" stop-color="#EF553B" />
</linearGradient>
<linearGradient x1="-183.49023108152988" y1="-79.56968705258784" x2="-96.51612998700956" y2="175.17030756475447" gradientUnits="userSpaceOnUse" id="iDCcOgrV33">
<stop offset="0" stop-color="#FF6692" />
<stop offset="1" stop-color="#FF97FF" />
</linearGradient>
<linearGradient x1="-183.49023108152988" y1="-79.56968705258784" x2="188.05226979317467" y2="68.0907029309806" gradientUnits="userSpaceOnUse" id="iDCcOgrV34">
<stop offset="0" stop-color="#FF6692" />
<stop offset="1" stop-color="#B6E880" />
</linearGradient>
<linearGradient x1="-187.70946704859946" y1="-69.03010923018125" x2="-106.29994402271801" y2="169.41169351838442" gradientUnits="userSpaceOnUse" id="iDCcOgrV35">
<stop offset="0" stop-color="#B6E880" />
<stop offset="1" stop-color="#B6E880" />
</linearGradient>
<linearGradient x1="-195.93003451129763" y1="-40.14251582053269" x2="14.165261360102974" y2="199.49773274551262" gradientUnits="userSpaceOnUse" id="iDCcOgrV36">
<stop offset="0" stop-color="#FF97FF" />
<stop offset="1" stop-color="#FFA15A" />
</linearGradient>
<linearGradient x1="-191.3238812783776" y1="-58.268108366217575" x2="188.05226979317467" y2="68.0907029309806" gradientUnits="userSpaceOnUse" id="iDCcOgrV37">
<stop offset="0" stop-color="#FF97FF" />
<stop offset="1" stop-color="#B6E880" />
</linearGradient>
<linearGradient x1="-199.73203298576547" y1="-10.349637644530823" x2="-195.51881962338996" y2="42.099776401737536" gradientUnits="userSpaceOnUse" id="iDCcOgrV38">
<stop offset="0" stop-color="#FECB52" />
<stop offset="1" stop-color="#00CC96" />
</linearGradient>
<linearGradient x1="-197.89209915071334" y1="-28.960612799528956" x2="-178.67976824623875" y2="89.85288208772391" gradientUnits="userSpaceOnUse" id="iDCcOgrV39">
<stop offset="0" stop-color="#FECB52" />
<stop offset="1" stop-color="#FFA15A" />
</linearGradient>
</defs>
<rect x="-450" y="-450" width="900.0" height="900.0" fill="#ffffff" fill-opacity="1.0" />
<path d="M300.0,-0.0 A300,300,0,0,0,299.67192646974,-14.02627840571926 L320.64896132262186,-15.008117894119609 A321.0,321.0,0,0,1,321.0,-0.0 Z" fill="#636EFA" fill-opacity="0.9" />
<path d="M299.51668255192357,-17.022246417269287 A300,300,0,0,0,207.90908368665535,-216.27254315001557 L222.46271954472124,-231.41162117051667 A321.0,321.0,0,0,1,320.4828503305582,-18.21380366647814 Z" fill="#EF553B" fill-opacity="0.9" />
<path d="M205.735998932843,-218.34078579849717 A300,300,0,0,0,149.53956457768757,-260.0729102115705 L160.0073340981257,-278.2780139263805 A321.0,321.0,0,0,1,220.13751885814202,-233.624640804392 Z" fill="#00CC96" fill-opacity="0.9" />
<path d="M146.93140190491923,-261.555277397064 A300,300,0,0,0,121.85812805069808,-274.136091436315 L130.38819701424697,-293.3256178368571 A321.0,321.0,0,0,1,157.21660003826358,-279.8641468148585 Z" fill="#AB63FA" fill-opacity="0.9" />
<path d="M119.11071996982656,-275.3409457168867 A300,300,0,0,0,79.43259152903738,-289.29304070955646 L84.99287293607,-309.5435535592254 A321.0,321.0,0,0,1,127.44847036771444,-294.61481191706883 Z" fill="#FFA15A" fill-opacity="0.9" />
<path d="M76.53573774072787,-290.07288885465067 A300,300,0,0,0,62.889896251733724,-293.3340432841817 L67.29218898935508,-313.8674263140744 A321.0,321.0,0,0,1,81.89323938257883,-310.37799107447626 Z" fill="#19D3F3" fill-opacity="0.9" />
<path d="M59.953460239046116,-293.9482651851599 A300,300,0,0,0,-79.01089856643688,-289.40849660596393 L-84.54166146608746,-309.6670913683814 A321.0,321.0,0,0,1,64.15020245577935,-314.52464374812115 Z" fill="#FF6692" fill-opacity="0.9" />
<path d="M-81.90098478598104,-288.603930484473 A300,300,0,0,0,-108.50033494103286,-279.69211164722486 L-116.09535838690516,-299.2705594625306 A321.0,321.0,0,0,1,-87.63405372099972,-308.8062056183861 Z" fill="#B6E880" fill-opacity="0.9" />
<path d="M-111.29178447084752,-278.5931418920689 A300,300,0,0,0,-149.16038186748762,-260.2905693280978 L-159.60160859821175,-278.5109091810646 A321.0,321.0,0,0,1,-119.08220938380686,-298.09466182451376 Z" fill="#FF97FF" fill-opacity="0.9" />
<path d="M-151.75578622228045,-258.7859759493499 A300,300,0,0,0,-175.26455291315648,-243.47964287009987 L-187.53307161707744,-260.52321787100686 A321.0,321.0,0,0,1,-162.3786912578401,-276.9009942658044 Z" fill="#FECB52" fill-opacity="0.9" />
<path d="M-177.69054560750087,-241.71485267088713 A300,300,0,0,0,-188.79742645339417,-233.14272831159718 L-202.01324630513176,-249.462719293409 A321.0,321.0,0,0,1,-190.12888380002593,-258.63489235784925 Z" fill="#636EFA" fill-opacity="0.9" />
<path d="M-191.11937508692566,-231.2431284738706 A300,300,0,0,0,-201.7219727245862,-222.0546007631936 L-215.84251081530726,-237.59842281661716 A321.0,321.0,0,0,1,-204.49773134301046,-247.43014746704156 Z" fill="#EF553B" fill-opacity="0.9" />
<path d="M-203.93239570871734,-220.02631201859276 A300,300,0,0,0,-213.99654733525696,-210.25098746162672 L-228.97630564872497,-224.9685565839406 A321.0,321.0,0,0,1,-218.20766340832756,-235.42815385989428 Z" fill="#00CC96" fill-opacity="0.9" />
<path d="M-216.08832243001532,-208.1005451924183 A300,300,0,0,0,-243.06832445296098,-175.8345519163685 L-260.08310716466826,-188.1429705505143 A321.0,321.0,0,0,1,-231.21450500011642,-222.66758335588761 Z" fill="#AB63FA" fill-opacity="0.9" />
<path d="M-244.814487351568,-173.3951175286921 A300,300,0,0,0,-252.65372414998674,-161.75937584307871 L-270.33948484048585,-173.08253215209425 A321.0,321.0,0,0,1,-261.9515014661778,-185.53277575570058 Z" fill="#FFA15A" fill-opacity="0.9" />
<path d="M-254.25865836772087,-159.22479280892975 A300,300,0,0,0,-268.01965236935774,-134.77932313158664 L-286.7810280352128,-144.2138757507977 A321.0,321.0,0,0,1,-272.05676445346137,-170.37052830555484 Z" fill="#19D3F3" fill-opacity="0.9" />
<path d="M-269.35402226662137,-132.09243236761313 A300,300,0,0,0,-280.51468809917685,-106.35558170882011 L-300.1507162661193,-113.80047242843753 A321.0,321.0,0,0,1,-288.20880382528486,-141.33890263334607 Z" fill="#FF6692" fill-opacity="0.9" />
<path d="M-281.56420057289915,-103.54516384527189 A300,300,0,0,0,-286.0974656875086,-90.26760286606078 L-306.1242882856342,-96.58633506668504 A321.0,321.0,0,0,1,-301.27369461300214,-110.79332531444092 Z" fill="#B6E880" fill-opacity="0.9" />
<path d="M-286.9858219175664,-87.40216254932636 A300,300,0,0,0,-296.3889049904399,-46.407079185917006 L-317.1361283397707,-49.6555747289312 A321.0,321.0,0,0,1,-307.07482945179606,-93.52031392777921 Z" fill="#FF97FF" fill-opacity="0.9" />
<path d="M-296.83814872607,-43.44091919929343 A300,300,0,0,0,-299.9962500078125,-1.499993750008217 L-320.99598750835935,-1.6049933125087923 A321.0,321.0,0,0,1,-317.61681913689495,-46.48178354324398 Z" fill="#FECB52" fill-opacity="0.9" />
<path d="M-299.9962500078125,1.4999937500073441 A300,300,0,0,0,-299.59804947864825,15.524456466795366 L-320.5699129421536,16.611168419471042 A321.0,321.0,0,0,1,-320.99598750835935,1.6049933125078584 Z" fill="#636EFA" fill-opacity="0.9" />
<path d="M-299.42782772373494,18.519610812468365 A300,300,0,0,0,-296.3889049904401,46.40707918591614 L-317.13612833977095,49.65557472893027 A321.0,321.0,0,0,1,-320.3877756643964,19.815983569341153 Z" fill="#EF553B" fill-opacity="0.9" />
<path d="M-295.91002261130086,49.36859850329356 A300,300,0,0,0,-290.00499076500785,76.79261247924632 L-310.30534011855843,82.16809535279356 A321.0,321.0,0,0,1,-316.62372419409195,52.82440039852411 Z" fill="#00CC96" fill-opacity="0.9" />
<path d="M-289.22257731021693,79.68877445434572 A300,300,0,0,0,-280.5146880991772,106.35558170881929 L-300.1507162661196,113.80047242843665 A321.0,321.0,0,0,1,-309.46815772193213,85.26698866614993 Z" fill="#AB63FA" fill-opacity="0.9" />
<path d="M-279.43712439040644,109.15536410282598 A300,300,0,0,0,-261.4250441589918,147.16299224488878 L-279.72479725012124,157.464401702031 A321.0,321.0,0,0,1,-298.99772309773493,116.79623959002382 Z" fill="#FFA15A" fill-opacity="0.9" />
<path d="M-259.94036762030447,149.76984102756128 A300,300,0,0,0,-236.43980286565497,184.6516168920549 L-252.99058906625083,197.57723007449877 A321.0,321.0,0,0,1,-278.1361933537258,160.2537298994906 Z" fill="#19D3F3" fill-opacity="0.9" />
<path d="M-234.58149558022305,187.00674301036793 A300,300,0,0,0,-173.61187091088246,244.6608229341655 L-185.76470187464423,261.7870805395571 A321.0,321.0,0,0,1,-251.00220027083867,200.0972150210937 Z" fill="#FF6692" fill-opacity="0.9" />
<path d="M-171.15662293693327,246.38467976890215 A300,300,0,0,0,-159.449916034077,254.11754027757664 L-170.6114101564624,271.905768097007 A321.0,321.0,0,0,1,-183.13758654251862,263.6316073527253 Z" fill="#B6E880" fill-opacity="0.9" />
<path d="M-156.90081055464847,255.69930709193233 A300,300,0,0,0,-144.77419498051432,262.7554613471317 L-154.90838862915032,281.1483436414309 A321.0,321.0,0,0,1,-167.88386729347388,273.5982585883676 Z" fill="#FF97FF" fill-opacity="0.9" />
<path d="M-142.13944550997437,264.1900415044387 A300,300,0,0,0,-116.84101824363756,276.3117378176142 L-125.0198895206922,295.6535594648472 A321.0,321.0,0,0,1,-152.08920669567257,282.6833444097494 Z" fill="#FECB52" fill-opacity="0.9" />
<path d="M-114.07210491495893,277.46631305488347 A300,300,0,0,0,-100.97462560402607,282.4962388849217 L-108.0428493963079,302.2709756068662 A321.0,321.0,0,0,1,-122.05715225900606,296.88895496872533 Z" fill="#636EFA" fill-opacity="0.9" />
<path d="M-98.14466160844042,283.491843617704 A300,300,0,0,0,-71.23566688170854,291.4197655683606 L-76.22216356342814,311.8191491581459 A321.0,321.0,0,0,1,-105.01478792103126,303.3362726709433 Z" fill="#EF553B" fill-opacity="0.9" />
<path d="M-68.31795604208043,292.117539497772 A300,300,0,0,0,-26.792738504471238,298.80118668343846 L-28.668230199784226,319.71726975127916 A321.0,321.0,0,0,1,-73.10021296502606,312.565767262616 Z" fill="#00CC96" fill-opacity="0.9" />
<path d="M-23.803436811824074,299.05416966821497 A300,300,0,0,0,4.234162617891911,299.9701182900144 L4.5305540011443455,320.96802657031543 A321.0,321.0,0,0,1,-25.46967738865176,319.98796154499 Z" fill="#AB63FA" fill-opacity="0.9" />
<path d="M7.233602099655585,299.9127789885984 A300,300,0,0,0,21.24789204015446,299.24659911826893 L22.735244482965275,320.1938610565478 A321.0,321.0,0,0,1,7.739954246631477,320.9066735178003 Z" fill="#FFA15A" fill-opacity="0.9" />
<path d="M24.23924577140452,299.01916153389476 A300,300,0,0,0,65.8200433272024,292.6904882233196 L70.42744636010657,313.17882239895204 A321.0,321.0,0,0,1,25.935992975402836,319.9505028412674 Z" fill="#19D3F3" fill-opacity="0.9" />
<path d="M68.74360845318996,292.0176643575428 A300,300,0,0,0,270.0111147582726,130.74401671585193 L288.9118927913517,139.89609788596158 A321.0,321.0,0,0,1,73.55566104491326,312.45890086257083 Z" fill="#FF6692" fill-opacity="0.9" />
<path d="M271.3050326916369,128.03741342353743 A300,300,0,0,0,299.33148721544825,20.016512218364685 L320.28469132052965,21.417668073650216 A321.0,321.0,0,0,1,290.29638498005147,137.00003236318506 Z" fill="#B6E880" fill-opacity="0.9" />
<path d="M299.51668255192345,17.022246417271298 A300,300,0,0,0,299.98500012499954,2.99995000025214 L320.98395013374954,3.20994650026979 A321.0,321.0,0,0,1,320.4828503305581,18.21380366648029 Z" fill="#FF97FF" fill-opacity="0.9" />
<path d="M297.0,-0.0 A297.0,297.0,0,0,0,296.6752072050426,-13.886015621662068 C118.67008288201706,-5.554406248664828,-33.57402086621822,113.95711966733252,-83.93505216554554,284.8927991683313 A297.0,297.0,0,0,0,-70.52331021289145,288.505567912677 C-28.20932408515658,115.40222716507081,118.80000000000001,-0.0,297.0,-0.0 Z" fill="url(#iDCcOgrV0)" fill-opacity="0.6" />
<path d="M215.61544798422239,-204.2522425594468 A297.0,297.0,0,0,0,205.8299928497888,-214.10981771851542 C82.33199713991553,-85.64392708740617,-112.93147797992123,36.87711053310129,-282.32869494980304,92.19277633275321 A297.0,297.0,0,0,0,-277.7095412181854,105.2920258917311 C-111.08381648727416,42.11681035669244,86.24617919368896,-81.70089702377874,215.61544798422239,-204.2522425594468 Z" fill="url(#iDCcOgrV1)" fill-opacity="0.6" />
<path d="M233.75123293365817,-183.21943429121998 A297.0,297.0,0,0,0,215.61544798422239,-204.2522425594468 C86.24617919368896,-81.70089702377874,-77.49945986804745,90.04040048867455,-193.74864967011862,225.10100122168637 A297.0,297.0,0,0,0,-171.87575220177362,242.21421470482386 C-68.75030088070945,96.88568588192955,93.50049317346327,-73.28777371648799,233.75123293365817,-183.21943429121998 Z" fill="url(#iDCcOgrV2)" fill-opacity="0.6" />
<path d="M242.0618969420444,-172.09020323312734 A297.0,297.0,0,0,0,233.75123293365817,-183.21943429121998 C93.50049317346327,-73.28777371648799,-45.17255354632374,109.87665996973385,-112.93138386580934,274.6916499243346 A297.0,297.0,0,0,0,-99.96487934798581,279.6712764960725 C-39.98595173919433,111.868510598429,96.82475877681776,-68.83608129325094,242.0618969420444,-172.09020323312734 Z" fill="url(#iDCcOgrV3)" fill-opacity="0.6" />
<path d="M257.07792415216977,-148.72774090132364 A297.0,297.0,0,0,0,242.0618969420444,-172.09020323312734 C96.82475877681776,-68.83608129325094,-9.426160977482335,118.42545118861312,-23.565402443705835,296.0636279715328 A297.0,297.0,0,0,0,4.1918209917129925,296.97041710711426 C1.6767283966851971,118.78816684284571,102.83116966086791,-59.49109636052946,257.07792415216977,-148.72774090132364 Z" fill="url(#iDCcOgrV4)" fill-opacity="0.6" />
<path d="M263.75044494686017,-136.54560699756428 A297.0,297.0,0,0,0,257.07792415216977,-148.72774090132364 C102.83116966086791,-59.49109636052946,20.617160400749032,116.99731918727792,51.54290100187258,292.4932979681948 A297.0,297.0,0,0,0,65.16184289393037,289.7635833410864 C26.06473715757215,115.90543333643457,105.50017797874408,-54.618242799025715,263.75044494686017,-136.54560699756428 Z" fill="url(#iDCcOgrV5)" fill-opacity="0.6" />
<path d="M293.65106222030306,-44.47531514095983 A297.0,297.0,0,0,0,263.75044494686017,-136.54560699756428 C105.50017797874408,-54.618242799025715,84.59502152469167,83.40936598030794,211.48755381172919,208.52341495076985 A297.0,297.0,0,0,0,267.31100361068985,129.4365765486934 C106.92440144427594,51.774630619477364,117.46042488812122,-17.790126056383933,293.65106222030306,-44.47531514095983 Z" fill="url(#iDCcOgrV6)" fill-opacity="0.6" />
<path d="M296.52151572640435,-16.85202395309659 A297.0,297.0,0,0,0,293.65106222030306,-44.47531514095983 C117.46042488812122,-17.790126056383933,117.27665362026073,18.963821229736023,293.1916340506518,47.40955307434006 A297.0,297.0,0,0,0,296.33817234329376,19.81634709618104 C118.53526893731751,7.926538838472417,118.60860629056174,-6.740809581238636,296.52151572640435,-16.85202395309659 Z" fill="url(#iDCcOgrV7)" fill-opacity="0.6" />
<path d="M159.92019266802095,-250.26891931884603 A297.0,297.0,0,0,0,148.0441689319107,-257.47218110945477 C59.21766757276428,-102.98887244378191,-106.13578233826581,53.372611960108,-265.33945584566453,133.43152990027 A297.0,297.0,0,0,0,-258.81079371740185,145.69136232243991 C-103.52431748696074,58.276544928975966,63.968077067208384,-100.10756772753842,159.92019266802095,-250.26891931884603 Z" fill="url(#iDCcOgrV8)" fill-opacity="0.6" />
<path d="M182.5977187730446,-234.2372154438319 A297.0,297.0,0,0,0,159.92019266802095,-250.26891931884603 C63.968077067208384,-100.10756772753842,-100.05087476339494,64.0567128338589,-250.12718690848735,160.14178208464722 A297.0,297.0,0,0,0,-234.07540483699842,182.80510072313433 C-93.63016193479937,73.12204028925373,73.03908750921784,-93.69488617753277,182.5977187730446,-234.2372154438319 Z" fill="url(#iDCcOgrV9)" fill-opacity="0.6" />
<path d="M193.34962183497905,-225.44383721066893 A297.0,297.0,0,0,0,182.5977187730446,-234.2372154438319 C73.03908750921784,-93.69488617753277,-16.13053225794917,117.69981278266869,-40.326330644872925,294.2495319566717 A297.0,297.0,0,0,0,-26.524811119426523,295.8131748166041 C-10.60992444777061,118.32526992664164,77.33984873399163,-90.17753488426757,193.34962183497905,-225.44383721066893 Z" fill="url(#iDCcOgrV10)" fill-opacity="0.6" />
<path d="M203.67863894351456,-216.1573779405122 A297.0,297.0,0,0,0,193.34962183497905,-225.44383721066893 C77.33984873399163,-90.17753488426757,80.60276693723046,87.27332904193874,201.50691734307614,218.18332260484684 A297.0,297.0,0,0,0,211.48755381172919,208.52341495076985 C84.59502152469167,83.40936598030794,81.47145557740583,-86.46295117620488,203.67863894351456,-216.1573779405122 Z" fill="url(#iDCcOgrV11)" fill-opacity="0.6" />
<path d="M133.1964781240184,-265.45752619836924 A297.0,297.0,0,0,0,120.6395467701911,-271.3947305219519 C48.25581870807645,-108.55789220878076,-118.79851500309377,0.5939975250029083,-296.9962875077344,1.4849938125072706 A297.0,297.0,0,0,0,-296.6020689838618,15.369211902127411 C-118.64082759354471,6.147684760850964,53.27859124960736,-106.1830104793477,133.1964781240184,-265.45752619836924 Z" fill="url(#iDCcOgrV12)" fill-opacity="0.6" />
<path d="M145.46208788587003,-258.93972462309335 A297.0,297.0,0,0,0,133.1964781240184,-265.45752619836924 C53.27859124960736,-106.1830104793477,-116.13817885629365,25.0072671826321,-290.3454471407341,62.51816795658024 A297.0,297.0,0,0,0,-287.1049408573578,76.02468635445386 C-114.84197634294313,30.409874541781548,58.184835154348015,-103.57588984923734,145.46208788587003,-258.93972462309335 Z" fill="url(#iDCcOgrV13)" fill-opacity="0.6" />
<path d="M91.94269411080568,-282.4102352954772 A297.0,297.0,0,0,0,78.63826561374701,-286.4001103024609 C31.455306245498804,-114.56004412098437,15.124490679948412,117.8333135478764,37.81122669987103,294.583283869691 A297.0,297.0,0,0,0,51.54290100187258,292.4932979681948 C20.617160400749032,116.99731918727792,36.77707764432227,-112.96409411819089,91.94269411080568,-282.4102352954772 Z" fill="url(#iDCcOgrV14)" fill-opacity="0.6" />
<path d="M117.9196127701283,-272.58753625971787 A297.0,297.0,0,0,0,91.94269411080568,-282.4102352954772 C36.77707764432227,-112.96409411819089,72.09850233923555,94.42058017423557,180.24625584808888,236.0514504355889 A297.0,297.0,0,0,0,201.50691734307614,218.18332260484684 C80.60276693723046,87.27332904193874,47.167845108051324,-109.03501450388715,117.9196127701283,-272.58753625971787 Z" fill="url(#iDCcOgrV15)" fill-opacity="0.6" />
<path d="M75.7703803633206,-287.1721599661042 A297.0,297.0,0,0,0,62.260997289216384,-290.4007028513399 C24.904398915686556,-116.16028114053596,118.6086062905617,6.740809581239434,296.52151572640423,16.852023953098584 A297.0,297.0,0,0,0,296.9851501237496,2.969950500249619 C118.79406004949983,1.1879802000998476,30.30815214532824,-114.86886398644168,75.7703803633206,-287.1721599661042 Z" fill="url(#iDCcOgrV16)" fill-opacity="0.6" />
<path d="M-51.11657368063687,-292.5681047126498 A297.0,297.0,0,0,0,-78.22078958077252,-286.51441163990427 C-31.28831583230901,-114.6057646559617,-27.053910592663847,115.6785456411177,-67.63477648165961,289.19636410279423 A297.0,297.0,0,0,0,-40.326330644872925,294.2495319566717 C-16.13053225794917,117.69981278266869,-20.44662947225475,-117.02724188505994,-51.11657368063687,-292.5681047126498 Z" fill="url(#iDCcOgrV17)" fill-opacity="0.6" />
<path d="M45.68311678918897,-293.46559055607406 A297.0,297.0,0,0,0,-51.11657368063687,-292.5681047126498 C-20.44662947225475,-117.02724188505994,37.90486091969009,112.59068131359253,94.7621522992252,281.4767032839813 A297.0,297.0,0,0,0,180.24625584808888,236.0514504355889 C72.09850233923555,94.42058017423557,18.27324671567559,-117.38623622242963,45.68311678918897,-293.46559055607406 Z" fill="url(#iDCcOgrV18)" fill-opacity="0.6" />
<path d="M59.35392563665566,-291.00878253330836 A297.0,297.0,0,0,0,45.68311678918897,-293.46559055607406 C18.27324671567559,-117.38623622242963,116.26176294701122,24.426266117705485,290.65440736752805,61.06566529426371 A297.0,297.0,0,0,0,293.1916340506518,47.40955307434006 C117.27665362026073,18.963821229736023,23.741570254662264,-116.40351301332335,59.35392563665566,-291.00878253330836 Z" fill="url(#iDCcOgrV19)" fill-opacity="0.6" />
<path d="M-94.35183439619476,-281.6145084083436 A297.0,297.0,0,0,0,-107.41533159162253,-276.8951905307526 C-42.966132636649014,-110.75807621230103,-81.62448054679564,86.31850424715306,-204.06120136698908,215.79626061788264 A297.0,297.0,0,0,0,-193.74864967011862,225.10100122168637 C-77.49945986804745,90.04040048867455,-37.74073375847791,-112.64580336333745,-94.35183439619476,-281.6145084083436 Z" fill="url(#iDCcOgrV20)" fill-opacity="0.6" />
<path d="M-81.08197493812122,-285.7178911796282 A297.0,297.0,0,0,0,-94.35183439619476,-281.6145084083436 C-37.74073375847791,-112.64580336333745,32.5993148412567,114.23976834658157,81.49828710314175,285.5994208664539 A297.0,297.0,0,0,0,94.7621522992252,281.4767032839813 C37.90486091969009,112.59068131359253,-32.43278997524849,-114.28715647185129,-81.08197493812122,-285.7178911796282 Z" fill="url(#iDCcOgrV21)" fill-opacity="0.6" />
<path d="M-135.45929428486295,-264.31000660558976 A297.0,297.0,0,0,0,-147.66877804881273,-257.6876636348168 C-59.067511219525095,-103.07506545392671,-114.53214061484591,31.556754683920907,-286.3303515371148,78.89188670980226 A297.0,297.0,0,0,0,-282.32869494980304,92.19277633275321 C-112.93147797992123,36.87711053310129,-54.183717713945185,-105.72400264223592,-135.45929428486295,-264.31000660558976 Z" fill="url(#iDCcOgrV22)" fill-opacity="0.6" />
<path d="M-110.17886662613904,-275.8072104731482 A297.0,297.0,0,0,0,-135.45929428486295,-264.31000660558976 C-54.183717713945185,-105.72400264223592,113.47190934171643,35.17905328949732,283.67977335429106,87.9476332237433 A297.0,297.0,0,0,0,290.65440736752805,61.06566529426371 C116.26176294701122,24.426266117705485,-44.071546650455616,-110.32288418925928,-110.17886662613904,-275.8072104731482 Z" fill="url(#iDCcOgrV23)" fill-opacity="0.6" />
<path d="M-150.23822836005766,-256.1981161898564 A297.0,297.0,0,0,0,-173.5119073840249,-241.04484644139887 C-69.40476295360996,-96.41793857655955,-89.3303136705778,78.31688872469454,-223.32578417644447,195.7922218117363 A297.0,297.0,0,0,0,-204.06120136698908,215.79626061788264 C-81.62448054679564,86.31850424715306,-60.09529134402307,-102.47924647594257,-150.23822836005766,-256.1981161898564 Z" fill="url(#iDCcOgrV24)" fill-opacity="0.6" />
<path d="M-175.91364015142585,-239.29770414417825 A297.0,297.0,0,0,0,-186.90945218886023,-230.8113010284812 C-74.7637808755441,-92.32452041139248,27.222468947463227,115.63899508558694,68.05617236865807,289.0974877139673 A297.0,297.0,0,0,0,81.49828710314175,285.5994208664539 C32.5993148412567,114.23976834658157,-70.36545606057034,-95.71908165767131,-175.91364015142585,-239.29770414417825 Z" fill="url(#iDCcOgrV25)" fill-opacity="0.6" />
<path d="M-189.20818133605638,-228.9306971891319 A297.0,297.0,0,0,0,-199.70475299734036,-219.83405475556168 C-79.88190119893615,-87.93362190222467,-92.89427224976833,74.05467023210569,-232.2356806244208,185.13667558026424 A297.0,297.0,0,0,0,-223.32578417644447,195.7922218117363 C-89.3303136705778,78.31688872469454,-75.68327253442256,-91.57227887565277,-189.20818133605638,-228.9306971891319 Z" fill="url(#iDCcOgrV26)" fill-opacity="0.6" />
<path d="M-201.89307175163015,-217.8260488984068 A297.0,297.0,0,0,0,-211.8565818619044,-208.14847758701046 C-84.74263274476176,-83.2593910348042,-118.10086563712778,12.869558491303899,-295.25216409281944,32.17389622825974 A297.0,297.0,0,0,0,-293.4250159405357,45.943008394056974 C-117.37000637621428,18.37720335762279,-80.75722870065206,-87.13041955936274,-201.89307175163015,-217.8260488984068 Z" fill="url(#iDCcOgrV27)" fill-opacity="0.6" />
<path d="M-232.2356806244203,-185.13667558026495 A297.0,297.0,0,0,0,-240.63764120843138,-174.0762063972048 C-96.25505648337256,-69.63048255888192,-118.57341977859906,7.333765881737472,-296.43354944649764,18.33441470434368 A297.0,297.0,0,0,0,-295.25216409281944,32.17389622825974 C-118.10086563712778,12.869558491303899,-92.89427224976812,-74.05467023210598,-232.2356806244203,-185.13667558026495 Z" fill="url(#iDCcOgrV28)" fill-opacity="0.6" />
<path d="M-213.92743920571516,-206.0195397404941 A297.0,297.0,0,0,0,-232.2356806244203,-185.13667558026495 C-92.89427224976812,-74.05467023210598,-56.287220421949854,104.61925643575772,-140.71805105487462,261.5481410893943 A297.0,297.0,0,0,0,-115.67260806120119,273.548620439438 C-46.26904322448048,109.41944817577522,-85.57097568228608,-82.40781589619765,-213.92743920571516,-206.0195397404941 Z" fill="url(#iDCcOgrV29)" fill-opacity="0.6" />
<path d="M-242.36634247805233,-171.66116635340518 A297.0,297.0,0,0,0,-250.1271869084869,-160.14178208464793 C-100.05087476339476,-64.05671283385918,9.59874132547619,118.41158796742232,23.996853313690476,296.0289699185558 A297.0,297.0,0,0,0,37.81122669987103,294.583283869691 C15.124490679948412,117.8333135478764,-96.94653699122094,-68.66446654136207,-242.36634247805233,-171.66116635340518 Z" fill="url(#iDCcOgrV30)" fill-opacity="0.6" />
<path d="M-258.81079371740145,-145.69136232244065 A297.0,297.0,0,0,0,-265.33945584566413,-133.4315299002708 C-106.13578233826566,-53.372611960108316,-102.93638557764058,59.30885704691426,-257.3409639441014,148.27214261728565 A297.0,297.0,0,0,0,-250.12718690848735,160.14178208464722 C-100.05087476339494,64.0567128338589,-103.52431748696058,-58.276544928976264,-258.81079371740145,-145.69136232244065 Z" fill="url(#iDCcOgrV31)" fill-opacity="0.6" />
<path d="M-251.71607178404366,-157.63254488084044 A297.0,297.0,0,0,0,-258.81079371740145,-145.69136232244065 C-103.52431748696058,-58.276544928976264,-38.865285996942404,112.26277007261079,-97.163214992356,280.65692518152696 A297.0,297.0,0,0,0,-83.93505216554554,284.8927991683313 C-33.57402086621822,113.95711966733252,-100.68642871361747,-63.05301795233618,-251.71607178404366,-157.63254488084044 Z" fill="url(#iDCcOgrV32)" fill-opacity="0.6" />
<path d="M-272.48299315607187,-118.16098527309293 A297.0,297.0,0,0,0,-277.7095412181851,-105.29202589173191 C-111.08381648727405,-42.11681035669277,-62.132720979640794,101.2569256084052,-155.33180244910199,253.142314021013 A297.0,297.0,0,0,0,-143.3264530307092,260.1279067336604 C-57.330581212283676,104.05116269346416,-108.99319726242875,-47.26439410923717,-272.48299315607187,-118.16098527309293 Z" fill="url(#iDCcOgrV33)" fill-opacity="0.6" />
<path d="M-266.66048204395514,-130.771508043937 A297.0,297.0,0,0,0,-272.48299315607187,-118.16098527309293 C-108.99319726242875,-47.26439410923717,111.70304825714575,40.445877541002474,279.25762064286437,101.11469385250618 A297.0,297.0,0,0,0,283.67977335429106,87.9476332237433 C113.47190934171643,35.17905328949732,-106.66419281758206,-52.3086032175748,-266.66048204395514,-130.771508043937 Z" fill="url(#iDCcOgrV34)" fill-opacity="0.6" />
<path d="M-278.74855856717016,-102.50971220681917 A297.0,297.0,0,0,0,-283.2364910306335,-89.36492683740018 C-113.2945964122534,-35.745970734960075,-67.77802268302558,97.56833318848525,-169.44505670756394,243.92083297121312 A297.0,297.0,0,0,0,-157.85541687373623,251.57636487480087 C-63.14216674949449,100.63054594992036,-111.49942342686808,-41.003884882727675,-278.74855856717016,-102.50971220681917 Z" fill="url(#iDCcOgrV35)" fill-opacity="0.6" />
<path d="M-290.956101249277,-59.61163599349104 A297.0,297.0,0,0,0,-293.42501594053556,-45.943008394057834 C-117.37000637621423,-18.377203357623134,2.864506431463612,118.76546047948496,7.161266078659029,296.9136511987124 A297.0,297.0,0,0,0,21.035413119752917,296.2541331270862 C8.414165247901167,118.5016532508345,-116.38244049971081,-23.84465439739642,-290.956101249277,-59.61163599349104 Z" fill="url(#iDCcOgrV36)" fill-opacity="0.6" />
<path d="M-284.1159636983908,-86.52814092383309 A297.0,297.0,0,0,0,-290.956101249277,-59.61163599349104 C-116.38244049971081,-23.84465439739642,107.43679294588821,50.70281571572082,268.59198236472054,126.75703928930204 A297.0,297.0,0,0,0,279.25762064286437,101.11469385250618 C111.70304825714575,40.445877541002474,-113.64638547935631,-34.61125636953324,-284.1159636983908,-86.52814092383309 Z" fill="url(#iDCcOgrV37)" fill-opacity="0.6" />
<path d="M-296.6020689838617,-15.369211902128272 A297.0,297.0,0,0,0,-296.9962875077344,-1.484993812508135 C-118.79851500309377,-0.593997525003254,-117.18036895407516,19.54996500730425,-292.9509223851879,48.87491251826063 A297.0,297.0,0,0,0,-290.3454471407341,62.51816795658024 C-116.13817885629365,25.0072671826321,-118.6408275935447,-6.147684760851309,-296.6020689838617,-15.369211902128272 Z" fill="url(#iDCcOgrV38)" fill-opacity="0.6" />
<path d="M-293.8697672388093,-43.0065100073005 A297.0,297.0,0,0,0,-296.6020689838617,-15.369211902128272 C-118.6408275935447,-6.147684760851309,-110.65710125860096,43.22552418471909,-276.6427531465024,108.06381046179773 A297.0,297.0,0,0,0,-265.33945584566453,133.43152990027 C-106.13578233826581,53.372611960108,-117.54790689552372,-17.2026040029202,-293.8697672388093,-43.0065100073005 Z" fill="url(#iDCcOgrV39)" fill-opacity="0.6" />
<text x="330.0" y="0" font-size="12" text-anchor="start" dominant-baseline="middle" transform="rotate(-1.339899)" font-family="Arial">TRAV10</text>
<text x="330.0" y="0" font-size="12" text-anchor="start" dominant-baseline="middle" transform="rotate(-24.691147)" font-family="Arial">TRAV12</text>
<text x="330.0" y="0" font-size="12" text-anchor="start" dominant-baseline="middle" transform="rotate(-53.401992)" font-family="Arial">TRAV14</text>
<text x="330.0" y="0" font-size="12" text-anchor="start" dominant-baseline="middle" transform="rotate(-63.354245)" font-family="Arial">TRAV16</text>
<text x="330.0" y="0" font-size="12" text-anchor="start" dominant-baseline="middle" transform="rotate(-70.626700)" font-family="Arial">TRAV19</text>
<text x="330.0000000000001" y="0" font-size="12" text-anchor="start" dominant-baseline="middle" transform="rotate(-76.559255)" font-family="Arial">TRAV20</text>
<text x="-330.0" y="0" font-size="12" text-anchor="end" dominant-baseline="middle" transform="rotate(88.128894)" font-family="Arial">TRAV21</text>
<text x="-329.99999999999994" y="0" font-size="12" text-anchor="end" dominant-baseline="middle" transform="rotate(71.477143)" font-family="Arial">TRAV24</text>
<text x="-330.0" y="0" font-size="12" text-anchor="end" dominant-baseline="middle" transform="rotate(64.204688)" font-family="Arial">TRAV26</text>
<text x="-330.0" y="0" font-size="12" text-anchor="end" dominant-baseline="middle" transform="rotate(56.932234)" font-family="Arial">TRAV27</text>
<text x="-330.0" y="0" font-size="12" text-anchor="end" dominant-baseline="middle" transform="rotate(52.339578)" font-family="Arial">TRAV29</text>
<text x="-330.0" y="0" font-size="12" text-anchor="end" dominant-baseline="middle" transform="rotate(49.086821)" font-family="Arial">TRAV30</text>
<text x="-330.0" y="0" font-size="12" text-anchor="end" dominant-baseline="middle" transform="rotate(45.834065)" font-family="Arial">TRAV35</text>
<text x="-330.0" y="0" font-size="12" text-anchor="end" dominant-baseline="middle" transform="rotate(39.901509)" font-family="Arial">TRAV38</text>
<text x="-330.0" y="0" font-size="12" text-anchor="end" dominant-baseline="middle" transform="rotate(33.968954)" font-family="Arial">TRAV39</text>
<text x="-330.0" y="0" font-size="12" text-anchor="end" dominant-baseline="middle" transform="rotate(29.376298)" font-family="Arial">TRAV4</text>
<text x="-330.0" y="0" font-size="12" text-anchor="end" dominant-baseline="middle" transform="rotate(23.443743)" font-family="Arial">TRAV5</text>
<text x="-330.0" y="0" font-size="12" text-anchor="end" dominant-baseline="middle" transform="rotate(18.851087)" font-family="Arial">TRAV7</text>
<text x="-329.99999999999994" y="0" font-size="12" text-anchor="end" dominant-baseline="middle" transform="rotate(12.918531)" font-family="Arial">TRAV8</text>
<text x="-330.0" y="0" font-size="12" text-anchor="end" dominant-baseline="middle" transform="rotate(4.306177)" font-family="Arial">TRAV9</text>
<text x="-330.0" y="0" font-size="12" text-anchor="end" dominant-baseline="middle" transform="rotate(-1.626378)" font-family="Arial">TRBV1</text>
<text x="-330.0" y="0" font-size="12" text-anchor="end" dominant-baseline="middle" transform="rotate(-6.219034)" font-family="Arial">TRBV10</text>
<text x="-330.0" y="0" font-size="12" text-anchor="end" dominant-baseline="middle" transform="rotate(-12.151590)" font-family="Arial">TRBV11</text>
<text x="-330.0" y="0" font-size="12" text-anchor="end" dominant-baseline="middle" transform="rotate(-18.084145)" font-family="Arial">TRBV12</text>
<text x="-330.0" y="0" font-size="12" text-anchor="end" dominant-baseline="middle" transform="rotate(-25.356600)" font-family="Arial">TRBV13</text>
<text x="-330.0" y="0" font-size="12" text-anchor="end" dominant-baseline="middle" transform="rotate(-33.968954)" font-family="Arial">TRBV17</text>
<text x="-330.0" y="0" font-size="12" text-anchor="end" dominant-baseline="middle" transform="rotate(-46.601006)" font-family="Arial">TRBV19</text>
<text x="-330.0" y="0" font-size="12" text-anchor="end" dominant-baseline="middle" transform="rotate(-56.553260)" font-family="Arial">TRBV2</text>
<text x="-330.0" y="0" font-size="12" text-anchor="end" dominant-baseline="middle" transform="rotate(-59.806016)" font-family="Arial">TRBV20</text>
<text x="-330.0" y="0" font-size="12" text-anchor="end" dominant-baseline="middle" transform="rotate(-64.398672)" font-family="Arial">TRBV25</text>
<text x="-330.0" y="0" font-size="12" text-anchor="end" dominant-baseline="middle" transform="rotate(-68.991328)" font-family="Arial">TRBV27</text>
<text x="-330.0" y="0" font-size="12" text-anchor="end" dominant-baseline="middle" transform="rotate(-73.583984)" font-family="Arial">TRBV28</text>
<text x="-330.0" y="0" font-size="12" text-anchor="end" dominant-baseline="middle" transform="rotate(-80.856439)" font-family="Arial">TRBV29</text>
<text x="-330.0" y="0" font-size="12" text-anchor="end" dominant-baseline="middle" transform="rotate(-88.128894)" font-family="Arial">TRBV30</text>
<text x="330.0" y="0" font-size="12" text-anchor="start" dominant-baseline="middle" transform="rotate(-272.721550)" font-family="Arial">TRBV4</text>
<text x="330.0" y="0" font-size="12" text-anchor="start" dominant-baseline="middle" transform="rotate(-278.654105)" font-family="Arial">TRBV5</text>
<text x="330.0" y="0" font-size="12" text-anchor="start" dominant-baseline="middle" transform="rotate(-308.704849)" font-family="Arial">TRBV6</text>
<text x="330.0" y="0" font-size="12" text-anchor="start" dominant-baseline="middle" transform="rotate(-345.455091)" font-family="Arial">TRBV7</text>
<text x="330.0" y="0" font-size="12" text-anchor="start" dominant-baseline="middle" transform="rotate(-358.087143)" font-family="Arial">TRBV9</text>
</svg>